M48
;Layer_Color=6321
;FILE_FORMAT=2:5
INCH,TZ
;TYPE=PLATED
T1F00S00C0.01181
T2F00S00C0.01299
T3F00S00C0.04000
T4F00S00C0.06600
T5F00S00C0.07874
%
T01
X87000Y31000
X86000Y36000
X93000Y32000
X99000Y34000
X96300Y38100
X107900Y30300
X119100Y18200
X139000Y16000
X131600Y30400
X162900Y32800
X168000Y31000
X168700Y35600
X222500Y61300
X221100Y74400
X228400Y77700
X230900Y73100
X216700Y81400
X217000Y140000
X227000Y138000
X221000Y151000
X220400Y181600
X227700Y192000
X236000Y190000
X212400Y188900
X203000Y181000
X199000Y183000
X188000
X186000Y188000
X191000Y191000
X182000Y192000
X179300Y184700
X174000Y160000
X156000Y154000
X151000Y155000
Y147000
X141100Y152700
X136400Y160700
X129000Y157000
X119000Y152000
X115000Y154000
Y160000
X119000Y163000
X118000Y169000
Y176000
Y182000
X129000
X133000
X131000Y176000
X131800Y169400
X113000Y166000
X108300Y160900
X95100Y159200
X88600Y158000
X89000Y162800
X83900Y164700
X78900Y168500
X79600Y172700
X75800Y174600
X81000Y177900
X59000Y178000
X65500Y168700
X64000Y148000
X58000Y151000
X85000Y152000
X82300Y157000
X89300Y134000
X93000Y129400
X97000Y128500
X89400Y125600
X89000Y121100
X97500Y116600
X96700Y110300
X94350Y112550
X103600Y110500
X104300Y115500
X115100Y114000
X114900Y104800
X117200Y95300
X102900Y93800
X81000Y85000
X74000Y82000
X75000Y75000
X67000Y78000
X68000Y93000
X60000
X62000Y96000
X66500Y100700
X67000Y111000
X61900Y108700
X73000Y105000
Y65000
X65000Y63000
Y54000
Y45000
X90000Y40000
X111400Y38400
Y42900
X119400Y39500
Y57000
X126000Y67500
X121800Y72100
X131000Y71600
X133700Y74700
X139000Y75100
X138900Y82500
X142600Y88500
X149200Y91300
X154200Y95400
X160000Y95000
X161000Y102800
X157000
X155000Y117900
X161500
X163500Y128200
X147800Y118000
X141900Y111000
Y107500
X133200Y107000
X135500Y91018
X133300Y88700
X128600Y86300
X140100Y53700
X140000Y50500
X142500Y43200
X146600
X151700Y38300
X168700Y40100
X186000Y47000
X192000Y49000
X191000Y42000
X192000Y58000
X186000Y61000
X184000Y56000
X180300Y63600
X190000Y66000
X191300Y80500
X178200Y87600
X179900Y90800
X184700Y100600
X197100Y96700
X205600Y69500
X211800Y69600
X211000Y151000
X205300Y152200
X199600Y151100
X197439Y153688
X116100Y147900
X108500Y140300
X101700Y136200
X97700Y139900
X111700Y125400
X55000Y145000
X52000Y153000
X46000Y151000
X45000Y143000
X38000Y149000
X30000Y148000
X24000Y141000
X35000Y139000
X31000Y120000
X25000Y115000
X30000Y109000
X36000Y113000
X45000Y115000
X44000Y110000
X42000Y105000
X54000Y93000
X57000Y86000
X34000Y82000
X29000Y79000
X22800Y74000
X20800Y67500
X29800Y65700
X32900Y63200
X33300Y175500
X34900Y180300
X37400Y184600
X36000Y192000
X29000Y193000
X21600Y189900
X45000Y186000
X51000Y184000
X55000Y174000
X57600Y167600
X123000Y222400
X128300
X133700Y222500
X191000Y212000
X190000Y204000
X196000
X192000Y199000
X184000Y200000
X186000Y206000
T02
X129138Y50438
Y55162
X133862
Y50438
X135039Y120866
X130315
Y125591
X135039
Y130315
X130315
Y135039
X135039
X125591
Y130315
Y125591
Y120866
X120866
Y125591
Y130315
Y135039
T03
X181000Y163300
X191000
Y173300
X181000
T04
X108957Y7089
Y20081
X146949
Y7089
T05
X127953Y244094
M30
