G04*
G04 #@! TF.GenerationSoftware,Altium Limited,CircuitMaker,2.3.0 (2.3.0.3)*
G04*
G04 Layer_Color=15132400*
%FSLAX25Y25*%
%MOIN*%
G70*
G04*
G04 #@! TF.SameCoordinates,DFAF08F0-1B05-4ABB-8EC1-2A918C0C2617*
G04*
G04*
G04 #@! TF.FilePolarity,Positive*
G04*
G01*
G75*
%ADD10C,0.00591*%
%ADD11C,0.00984*%
%ADD12C,0.01000*%
%ADD13C,0.00500*%
%ADD14C,0.00787*%
%ADD15C,0.00300*%
%ADD16C,0.00700*%
D10*
X86656Y164700D02*
G03*
X86656Y164700I-2756J0D01*
G01*
X85056Y157000D02*
G03*
X85056Y157000I-2756J0D01*
G01*
D11*
X121146Y43154D02*
G03*
X121146Y43154I-492J0D01*
G01*
X195806Y88997D02*
G03*
X195806Y88997I-492J0D01*
G01*
X58222Y167650D02*
G03*
X58222Y167650I-492J0D01*
G01*
X200035Y177749D02*
G03*
X200035Y177749I-492J0D01*
G01*
X119783Y112598D02*
G03*
X119783Y112598I-492J0D01*
G01*
D12*
X112432Y146542D02*
G03*
X112432Y146542I-415J0D01*
G01*
X114700Y4300D02*
X141300D01*
X114700D02*
Y18191D01*
X141300Y4300D02*
Y18191D01*
X114700D02*
X141300D01*
D13*
X208589Y82415D02*
X211487Y80742D01*
X207113Y79858D02*
X210011Y78185D01*
X210889Y86415D02*
X213787Y84742D01*
X209413Y83858D02*
X212311Y82185D01*
X206289Y78315D02*
X209187Y76642D01*
X204813Y75758D02*
X207711Y74085D01*
X144327Y27824D02*
X147673D01*
X144327Y30776D02*
X147673D01*
X117276Y46227D02*
Y49573D01*
X114324Y46227D02*
Y49573D01*
X131927Y33724D02*
X135273D01*
X131927Y36676D02*
X135273D01*
X122727Y33724D02*
X126073D01*
X122727Y36676D02*
X126073D01*
X97876Y42727D02*
Y46073D01*
X94924Y42727D02*
Y46073D01*
X108276Y42727D02*
Y46073D01*
X105324Y42727D02*
Y46073D01*
X103076Y42727D02*
Y46073D01*
X100124Y42727D02*
Y46073D01*
X175713Y81658D02*
X178611Y79985D01*
X177189Y84215D02*
X180087Y82542D01*
X184113Y76858D02*
X187011Y75185D01*
X185589Y79415D02*
X188487Y77742D01*
X156127Y48176D02*
X159473D01*
X156127Y45224D02*
X159473D01*
X156127Y43476D02*
X159473D01*
X156127Y40524D02*
X159473D01*
X156127Y38676D02*
X159473D01*
X156127Y35724D02*
X159473D01*
X94927Y123624D02*
X98273D01*
X94927Y126576D02*
X98273D01*
X200924Y170127D02*
Y173473D01*
X203876Y170127D02*
Y173473D01*
X164173Y150161D02*
X166539Y152527D01*
X166261Y148073D02*
X168627Y150439D01*
X104327Y123624D02*
X107673D01*
X104327Y126576D02*
X107673D01*
X160273Y153961D02*
X162639Y156327D01*
X162361Y151873D02*
X164727Y154239D01*
X37189Y65585D02*
X40087Y67258D01*
X35713Y68142D02*
X38611Y69815D01*
X32389Y73785D02*
X35287Y75458D01*
X30913Y76342D02*
X33811Y78015D01*
X34789Y69685D02*
X37687Y71358D01*
X33313Y72242D02*
X36211Y73915D01*
X54842Y109287D02*
X56515Y106389D01*
X52285Y107811D02*
X53958Y104913D01*
X42913Y180058D02*
X45811Y178385D01*
X44389Y182615D02*
X47287Y180942D01*
X40613Y176158D02*
X43511Y174485D01*
X42089Y178715D02*
X44987Y177042D01*
X38313Y172258D02*
X41211Y170585D01*
X39789Y174815D02*
X42687Y173142D01*
X215313Y174942D02*
X218211Y176615D01*
X216789Y172385D02*
X219687Y174058D01*
X210513Y183042D02*
X213411Y184715D01*
X211989Y180485D02*
X214887Y182158D01*
X213013Y179142D02*
X215911Y180815D01*
X214489Y176585D02*
X217387Y178258D01*
X121424Y214727D02*
Y218073D01*
X124376Y214727D02*
Y218073D01*
X126824Y214727D02*
Y218073D01*
X129776Y214727D02*
Y218073D01*
X132224Y214727D02*
Y218073D01*
X135176Y214727D02*
Y218073D01*
D14*
X141342Y48076D02*
Y57524D01*
X121658Y48076D02*
Y57524D01*
X106219Y139093D02*
X112420Y149833D01*
X98782Y157707D02*
X112420Y149833D01*
X92581Y146967D02*
X98782Y157707D01*
X92581Y146967D02*
X106219Y139093D01*
X181661Y90743D02*
X191549Y85034D01*
X182251Y91766D02*
X192139Y86057D01*
X181661Y90743D02*
X182251Y91766D01*
X191549Y85034D02*
X192139Y86057D01*
X60990Y170541D02*
X61581Y171564D01*
X71219Y164636D02*
X71810Y165659D01*
X60990Y170541D02*
X71219Y164636D01*
X61581Y171564D02*
X71810Y165659D01*
X137795Y116142D02*
X139764D01*
Y118110D01*
X116142D02*
X118110Y116142D01*
X139764Y137795D02*
Y139764D01*
X137795D02*
X139764D01*
X116142Y137795D02*
Y139764D01*
X118110D01*
D15*
X176381Y89955D02*
X183881Y102945D01*
X169159Y111445D02*
X183881Y102945D01*
X161659Y98455D02*
X169159Y111445D01*
X161659Y98455D02*
X176381Y89955D01*
X48105Y91430D02*
X54956Y79565D01*
X76095Y91770D01*
X48105Y91430D02*
X69244Y103635D01*
X76095Y91770D01*
D16*
X186000Y168300D02*
Y178300D01*
Y168300D02*
X196000D01*
Y158300D02*
Y178300D01*
X176000Y158300D02*
X196000D01*
X176000D02*
Y178300D01*
X196000D01*
M02*
