G04*
G04 #@! TF.GenerationSoftware,Altium Limited,CircuitMaker,2.3.0 (2.3.0.3)*
G04*
G04 Layer_Color=8150272*
%FSLAX25Y25*%
%MOIN*%
G70*
G04*
G04 #@! TF.SameCoordinates,DFAF08F0-1B05-4ABB-8EC1-2A918C0C2617*
G04*
G04*
G04 #@! TF.FilePolarity,Negative*
G04*
G01*
G75*
%ADD79C,0.04737*%
%ADD80C,0.09800*%
%ADD81R,0.06496X0.06496*%
%ADD82C,0.06496*%
%ADD83C,0.12611*%
%ADD84C,0.03398*%
%ADD100R,0.03937X0.02953*%
%ADD101R,0.02953X0.03937*%
G04:AMPARAMS|DCode=102|XSize=29.53mil|YSize=39.37mil|CornerRadius=0mil|HoleSize=0mil|Usage=FLASHONLY|Rotation=240.000|XOffset=0mil|YOffset=0mil|HoleType=Round|Shape=Rectangle|*
%AMROTATEDRECTD102*
4,1,4,-0.00967,0.02263,0.02443,0.00294,0.00967,-0.02263,-0.02443,-0.00294,-0.00967,0.02263,0.0*
%
%ADD102ROTATEDRECTD102*%

G04:AMPARAMS|DCode=103|XSize=29.53mil|YSize=39.37mil|CornerRadius=0mil|HoleSize=0mil|Usage=FLASHONLY|Rotation=120.000|XOffset=0mil|YOffset=0mil|HoleType=Round|Shape=Rectangle|*
%AMROTATEDRECTD103*
4,1,4,0.02443,-0.00294,-0.00967,-0.02263,-0.02443,0.00294,0.00967,0.02263,0.02443,-0.00294,0.0*
%
%ADD103ROTATEDRECTD103*%

%ADD104C,0.03800*%
D79*
X83900Y164700D02*
D03*
X82300Y157000D02*
D03*
D80*
X146949Y20081D02*
D03*
X108957Y7089D02*
D03*
X146949D02*
D03*
X108957Y20081D02*
D03*
D81*
X191000Y173300D02*
D03*
D82*
Y163300D02*
D03*
X181000Y173300D02*
D03*
Y163300D02*
D03*
D83*
X127953Y244094D02*
D03*
D84*
X129138Y50438D02*
D03*
Y55162D02*
D03*
X133862D02*
D03*
Y50438D02*
D03*
X130315Y120866D02*
D03*
X135039D02*
D03*
X130315Y125591D02*
D03*
X135039D02*
D03*
X125591Y120866D02*
D03*
Y125591D02*
D03*
X120866Y120866D02*
D03*
Y125591D02*
D03*
X135039Y130315D02*
D03*
X130315D02*
D03*
Y135039D02*
D03*
X135039D02*
D03*
X125591Y130315D02*
D03*
X120866D02*
D03*
Y135039D02*
D03*
X125591D02*
D03*
D100*
X163750Y37730D02*
D03*
Y41470D02*
D03*
X157450D02*
D03*
Y37730D02*
D03*
D101*
X126083Y226924D02*
D03*
X129823D02*
D03*
Y233224D02*
D03*
X126083D02*
D03*
X129823Y15350D02*
D03*
X126083D02*
D03*
Y9050D02*
D03*
X129823D02*
D03*
D102*
X224607Y72494D02*
D03*
X222737Y69255D02*
D03*
X228193Y66106D02*
D03*
X230063Y69345D02*
D03*
X30893Y182506D02*
D03*
X32763Y185745D02*
D03*
X27307Y188894D02*
D03*
X25437Y185655D02*
D03*
D103*
X31763Y71055D02*
D03*
X29893Y74294D02*
D03*
X24437Y71145D02*
D03*
X26307Y67906D02*
D03*
X223737Y185945D02*
D03*
X225607Y182706D02*
D03*
X231063Y185855D02*
D03*
X229193Y189094D02*
D03*
D104*
X142600Y88500D02*
D03*
X149200Y91300D02*
D03*
X154200Y95400D02*
D03*
M02*
