G04*
G04 #@! TF.GenerationSoftware,Altium Limited,CircuitMaker,2.3.0 (2.3.0.3)*
G04*
G04 Layer_Color=13813960*
%FSLAX25Y25*%
%MOIN*%
G70*
G04*
G04 #@! TF.SameCoordinates,DFAF08F0-1B05-4ABB-8EC1-2A918C0C2617*
G04*
G04*
G04 #@! TF.FilePolarity,Positive*
G04*
G01*
G75*
%ADD12C,0.01000*%
%ADD105C,0.00050*%
%ADD106R,0.00689X0.00689*%
%ADD107R,0.00886X0.00984*%
%ADD108R,0.00886X0.00886*%
%ADD109R,0.00689X0.00689*%
%ADD110R,0.00984X0.00886*%
G04:AMPARAMS|DCode=111|XSize=6.89mil|YSize=6.89mil|CornerRadius=0mil|HoleSize=0mil|Usage=FLASHONLY|Rotation=240.000|XOffset=0mil|YOffset=0mil|HoleType=Round|Shape=Rectangle|*
%AMROTATEDRECTD111*
4,1,4,-0.00126,0.00471,0.00471,0.00126,0.00126,-0.00471,-0.00471,-0.00126,-0.00126,0.00471,0.0*
%
%ADD111ROTATEDRECTD111*%

G04:AMPARAMS|DCode=112|XSize=8.86mil|YSize=9.84mil|CornerRadius=0mil|HoleSize=0mil|Usage=FLASHONLY|Rotation=150.000|XOffset=0mil|YOffset=0mil|HoleType=Round|Shape=Rectangle|*
%AMROTATEDRECTD112*
4,1,4,0.00630,0.00205,0.00137,-0.00648,-0.00630,-0.00205,-0.00137,0.00648,0.00630,0.00205,0.0*
%
%ADD112ROTATEDRECTD112*%

%ADD113P,0.01253X4X285.0*%
G04:AMPARAMS|DCode=114|XSize=6.89mil|YSize=6.89mil|CornerRadius=0mil|HoleSize=0mil|Usage=FLASHONLY|Rotation=120.000|XOffset=0mil|YOffset=0mil|HoleType=Round|Shape=Rectangle|*
%AMROTATEDRECTD114*
4,1,4,0.00471,-0.00126,-0.00126,-0.00471,-0.00471,0.00126,0.00126,0.00471,0.00471,-0.00126,0.0*
%
%ADD114ROTATEDRECTD114*%

G04:AMPARAMS|DCode=115|XSize=8.86mil|YSize=9.84mil|CornerRadius=0mil|HoleSize=0mil|Usage=FLASHONLY|Rotation=30.000|XOffset=0mil|YOffset=0mil|HoleType=Round|Shape=Rectangle|*
%AMROTATEDRECTD115*
4,1,4,-0.00137,-0.00648,-0.00630,0.00205,0.00137,0.00648,0.00630,-0.00205,-0.00137,-0.00648,0.0*
%
%ADD115ROTATEDRECTD115*%

%ADD116P,0.01253X4X165.0*%
G36*
X155372Y150780D02*
X155408Y150694D01*
X155942Y147906D01*
X155939Y147906D01*
X155975Y147820D01*
X156032Y147796D01*
X158366Y146829D01*
X158424Y146806D01*
X158510Y146841D01*
X160859Y148434D01*
X160857Y148437D01*
X160943Y148472D01*
X161057Y148425D01*
X163057Y146407D01*
X163066Y146416D01*
X163113Y146301D01*
X163078Y146216D01*
X161485Y143867D01*
X161482Y143868D01*
X161447Y143782D01*
X161471Y143725D01*
X162437Y141391D01*
X162437D01*
X162461Y141333D01*
X162547Y141298D01*
X165334Y140763D01*
X165335Y140766D01*
X165421Y140731D01*
X165468Y140616D01*
X165456Y137776D01*
X165468D01*
X165421Y137661D01*
X165335Y137625D01*
X162548Y137091D01*
X162547Y137094D01*
X162461Y137058D01*
X162437Y137001D01*
X161471Y134667D01*
X161447Y134609D01*
X161482Y134523D01*
X163075Y132174D01*
X163078Y132176D01*
X163113Y132090D01*
X163066Y131975D01*
X161049Y129976D01*
X161057Y129967D01*
X160943Y129919D01*
X160857Y129955D01*
X158508Y131548D01*
X158510Y131551D01*
X158424Y131586D01*
X158366Y131562D01*
X157297Y131120D01*
X157240Y131096D01*
X157125Y131143D01*
X157101Y131201D01*
X155133Y136021D01*
X155110Y136078D01*
X155157Y136193D01*
X155209Y136214D01*
X155210Y136212D01*
X155492Y136329D01*
X156178Y136855D01*
X156704Y137540D01*
X157035Y138339D01*
X157148Y139196D01*
X157035Y140053D01*
X156704Y140851D01*
X156178Y141537D01*
X155492Y142063D01*
X154694Y142394D01*
X153837Y142507D01*
X152980Y142394D01*
X152182Y142063D01*
X151496Y141537D01*
X150970Y140851D01*
X150639Y140053D01*
X150526Y139196D01*
X150639Y138339D01*
X150970Y137540D01*
X151496Y136855D01*
X152182Y136329D01*
X152463Y136212D01*
X152465Y136214D01*
X152517Y136193D01*
X152564Y136078D01*
X152541Y136021D01*
X150573Y131201D01*
X150549Y131143D01*
X150434Y131096D01*
X150376Y131120D01*
X149308Y131562D01*
X149250Y131586D01*
X149164Y131551D01*
X146815Y129957D01*
X146817Y129955D01*
X146731Y129919D01*
X146617Y129967D01*
X144617Y131984D01*
X144608Y131975D01*
X144561Y132090D01*
X144596Y132176D01*
X146189Y134525D01*
X146192Y134523D01*
X146227Y134609D01*
X146203Y134667D01*
X145237Y137001D01*
X145237D01*
X145213Y137058D01*
X145127Y137094D01*
X142340Y137628D01*
X142339Y137625D01*
X142253Y137661D01*
X142206Y137776D01*
Y137776D01*
X142218Y140616D01*
X142206D01*
X142253Y140731D01*
X142339Y140766D01*
X145126Y141301D01*
X145127Y141298D01*
X145213Y141333D01*
X145237Y141391D01*
X146203Y143725D01*
X146227Y143783D01*
X146192Y143868D01*
X144599Y146217D01*
X144596Y146216D01*
X144561Y146301D01*
X144608Y146416D01*
X146625Y148416D01*
X146617Y148425D01*
X146731Y148472D01*
X146817Y148437D01*
X149166Y146844D01*
X149164Y146841D01*
X149250Y146806D01*
X149308Y146829D01*
X151642Y147796D01*
X151699Y147820D01*
X151735Y147906D01*
X152269Y150693D01*
X152266Y150694D01*
X152302Y150780D01*
X152417Y150827D01*
X152417D01*
X155257Y150815D01*
Y150827D01*
X155257D01*
X155372Y150780D01*
D02*
G37*
G36*
X167875Y127377D02*
X167875Y127377D01*
X168049Y127343D01*
X168137Y127284D01*
X168138Y127286D01*
X168339Y127152D01*
X168338Y127151D01*
X168473Y127061D01*
X168499Y127022D01*
X168500Y127022D01*
X168735Y126670D01*
X168754Y126572D01*
X168753Y126572D01*
X168815Y126262D01*
X168808Y126262D01*
X168861Y125854D01*
X168858Y125826D01*
X168859Y125826D01*
X168863Y125796D01*
X168808Y125382D01*
X168815Y125382D01*
X168753Y125070D01*
X168754Y125069D01*
X168735Y124972D01*
X168500Y124620D01*
X168498Y124622D01*
X168466Y124575D01*
X168338Y124489D01*
X168339Y124488D01*
X168139Y124355D01*
X168138Y124357D01*
X168056Y124302D01*
X167875Y124266D01*
Y124266D01*
X167560Y124204D01*
X167545Y124207D01*
X167545Y124207D01*
X167531Y124204D01*
X167219Y124266D01*
X167039Y124302D01*
X166957Y124357D01*
X166956Y124354D01*
X166755Y124489D01*
X166756Y124489D01*
X166622Y124579D01*
X166594Y124621D01*
X166592Y124620D01*
X166359Y124969D01*
X166339Y125070D01*
X166340Y125070D01*
X166278Y125382D01*
X166285Y125382D01*
X166230Y125796D01*
X166234Y125826D01*
X166235Y125826D01*
X166232Y125854D01*
X166285Y126262D01*
X166278Y126262D01*
X166340Y126571D01*
X166339Y126572D01*
X166359Y126672D01*
X166592Y127022D01*
X166592Y127022D01*
X166615Y127057D01*
X166756Y127151D01*
X166755Y127152D01*
X166956Y127286D01*
X166958Y127284D01*
X167046Y127343D01*
X167219Y127377D01*
X167219Y127377D01*
X167531Y127439D01*
X167545Y127437D01*
X167545Y127437D01*
X167560Y127440D01*
X167875Y127377D01*
D02*
G37*
G36*
X151455Y127377D02*
Y127377D01*
X151629Y127343D01*
X151717Y127284D01*
X151718Y127286D01*
X151919Y127152D01*
X151918Y127151D01*
X152053Y127061D01*
X152079Y127022D01*
X152080Y127022D01*
X152315Y126670D01*
X152334Y126572D01*
X152333Y126572D01*
X152395Y126262D01*
X152388Y126262D01*
X152442Y125854D01*
X152438Y125826D01*
X152439Y125826D01*
X152443Y125796D01*
X152388Y125382D01*
X152395Y125382D01*
X152333Y125070D01*
X152334Y125069D01*
X152315Y124972D01*
X152080Y124620D01*
X152078Y124622D01*
X152047Y124575D01*
X151918Y124489D01*
X151919Y124488D01*
X151719Y124355D01*
X151718Y124357D01*
X151636Y124302D01*
X151455Y124266D01*
X151140Y124204D01*
X151125Y124207D01*
X151126Y124207D01*
X151111Y124204D01*
X150800Y124266D01*
Y124266D01*
X150619Y124302D01*
X150537Y124357D01*
X150536Y124354D01*
X150335Y124489D01*
X150336Y124489D01*
X150202Y124579D01*
X150174Y124621D01*
X150172Y124620D01*
X149939Y124969D01*
X149919Y125070D01*
X149920Y125070D01*
X149858Y125382D01*
X149865Y125382D01*
X149811Y125796D01*
X149814Y125826D01*
X149815Y125826D01*
X149812Y125854D01*
X149865Y126262D01*
X149858Y126262D01*
X149920Y126571D01*
X149919Y126572D01*
X149939Y126672D01*
X150172Y127022D01*
X150172Y127022D01*
X150195Y127057D01*
X150336Y127151D01*
X150335Y127152D01*
X150537Y127286D01*
X150538Y127284D01*
X150626Y127343D01*
X150800Y127377D01*
X150800Y127377D01*
X151111Y127439D01*
X151126Y127437D01*
X151125Y127437D01*
X151140Y127440D01*
X151455Y127377D01*
D02*
G37*
G36*
X143176Y127336D02*
X143177Y127340D01*
X143214Y127332D01*
X143637Y127049D01*
X143634Y127046D01*
X143703Y126999D01*
X143819Y126825D01*
X143819Y126825D01*
X143952Y126626D01*
X143967Y126554D01*
X143972Y126556D01*
X144039Y126215D01*
X144037Y126215D01*
X144087Y125832D01*
X144085Y125819D01*
X144085Y125819D01*
X144087Y125805D01*
X144037Y125423D01*
X144039Y125423D01*
X143972Y125082D01*
X143967Y125084D01*
X143953Y125014D01*
X143819Y124814D01*
X143819Y124814D01*
X143706Y124645D01*
X143633Y124596D01*
X143637Y124592D01*
X143219Y124313D01*
X143177Y124305D01*
X143175Y124309D01*
X142663Y124207D01*
X142656Y124208D01*
X142657Y124208D01*
X142649Y124207D01*
X142322Y124272D01*
X142322Y124272D01*
X142126Y124311D01*
X142021Y124381D01*
X142020Y124378D01*
X141596Y124661D01*
X141530Y124761D01*
X142000Y125182D01*
X141999Y125182D01*
X142001Y125183D01*
X142000Y125182D01*
X142066Y125082D01*
X142287Y124934D01*
X142287Y124934D01*
X142340Y124899D01*
X142626Y124842D01*
X142632Y124843D01*
X142632Y124841D01*
X142652Y124837D01*
X142990Y124905D01*
X142989Y124907D01*
X143004Y124910D01*
X143210Y125048D01*
X143241Y125094D01*
X143241Y125095D01*
X143368Y125286D01*
X143391Y125397D01*
X143392Y125397D01*
X143471Y125793D01*
X143466Y125819D01*
X143466Y125818D01*
X143471Y125844D01*
X143392Y126242D01*
X143391Y126242D01*
X143368Y126355D01*
X143240Y126546D01*
X143241Y126546D01*
X143209Y126593D01*
X143003Y126732D01*
X142989Y126734D01*
X142990Y126737D01*
X142652Y126804D01*
X142632Y126800D01*
X142632Y126799D01*
X142627Y126800D01*
X142339Y126743D01*
X142289Y126709D01*
X142289Y126708D01*
X142062Y126557D01*
X141999Y126463D01*
X141541Y126872D01*
X141530Y126881D01*
X141597Y126981D01*
X142020Y127264D01*
X142022Y127262D01*
X142129Y127334D01*
X142322Y127372D01*
Y127372D01*
X142649Y127437D01*
X142657Y127436D01*
X142656Y127436D01*
X142663Y127438D01*
X143176Y127336D01*
D02*
G37*
G36*
X158654Y127346D02*
X158672Y127334D01*
X158670Y127329D01*
X158948Y127143D01*
X159014Y127044D01*
X159024Y127042D01*
Y127374D01*
X159648D01*
Y124271D01*
X159024D01*
Y126119D01*
X159037Y126118D01*
X159040Y126132D01*
X158987Y126400D01*
X158981Y126399D01*
X158881Y126641D01*
X158881Y126641D01*
X158878Y126647D01*
X158650Y126742D01*
X158654Y126751D01*
X158414Y126798D01*
X158405Y126797D01*
X158405Y126796D01*
X158398Y126798D01*
X158162Y126751D01*
X158166Y126741D01*
X157940Y126648D01*
X157937Y126641D01*
X157937Y126641D01*
X157837Y126399D01*
X157831Y126400D01*
X157778Y126132D01*
X157781Y126118D01*
X157794Y124271D01*
X157170D01*
Y126334D01*
X157144Y126333D01*
X157143Y126340D01*
X157191Y126581D01*
X157191Y126581D01*
X157236Y126804D01*
X157236Y126805D01*
X157239Y126804D01*
X157428Y127087D01*
X157504Y127138D01*
X157502Y127141D01*
X157832Y127361D01*
X157840Y127363D01*
X157843Y127356D01*
X158204Y127428D01*
X158204Y127427D01*
X158224Y127431D01*
X158654Y127346D01*
D02*
G37*
G36*
X145100D02*
X145118Y127334D01*
X145116Y127329D01*
X145395Y127143D01*
X145461Y127044D01*
X145470Y127042D01*
Y127374D01*
X146095D01*
Y124271D01*
X145470D01*
Y126136D01*
X145483Y126135D01*
X145487Y126154D01*
X145432Y126433D01*
X145424Y126430D01*
X145341Y126630D01*
X145298Y126649D01*
X145286Y126635D01*
X145116Y126748D01*
X144867Y126798D01*
X144867Y126798D01*
X144866Y126833D01*
X144659Y126747D01*
X144654Y126758D01*
X144632Y126754D01*
X144452Y126634D01*
X144003Y127170D01*
X144000Y127173D01*
X144277Y127358D01*
X144313Y127365D01*
X144314Y127361D01*
X144651Y127428D01*
X144651Y127428D01*
X144651Y127427D01*
X144671Y127431D01*
X145100Y127346D01*
D02*
G37*
G36*
X161470Y127433D02*
X161470Y127432D01*
X161920Y127343D01*
X161924Y127351D01*
X161925Y127351D01*
X162343Y127072D01*
X162339Y127067D01*
X162404Y127024D01*
X162517Y126855D01*
X162517Y126855D01*
X162634Y126681D01*
X162654Y126579D01*
X162659Y126581D01*
X162729Y126229D01*
X162724Y126228D01*
X162777Y125826D01*
X162775Y125810D01*
X162775Y125810D01*
X162777Y125792D01*
X162722Y125372D01*
X162725Y125372D01*
X162654Y125010D01*
X162647Y125012D01*
X162633Y124942D01*
X162498Y124739D01*
X162498D01*
X162421Y124624D01*
X162302Y124544D01*
X162302Y124544D01*
X161967Y124320D01*
X161851Y124297D01*
X161850Y124301D01*
X161375Y124206D01*
X161375Y124204D01*
X161371Y124203D01*
X160763Y124324D01*
X160765Y124330D01*
X160750Y124333D01*
X160498Y124502D01*
X160498Y124502D01*
X160317Y124622D01*
X160246Y124728D01*
X160705Y125120D01*
X160694Y125109D01*
X160706Y125091D01*
X161018Y124882D01*
X161018Y124882D01*
X161033Y124872D01*
X161382Y124803D01*
X161387Y124804D01*
X161387Y124805D01*
X161398Y124803D01*
X161684Y124860D01*
X161684Y124861D01*
X161717Y124868D01*
X161924Y125005D01*
X161945Y124982D01*
X161967Y124992D01*
X162075Y125251D01*
X162082Y125248D01*
X162145Y125567D01*
X162141Y125587D01*
X160193Y125586D01*
Y126100D01*
X160170Y126099D01*
X160165Y126122D01*
X160269Y126647D01*
X160271Y126646D01*
X160274Y126661D01*
X160525Y127037D01*
X160567Y127065D01*
X160564Y127069D01*
X160970Y127341D01*
X160982Y127343D01*
X160984Y127340D01*
X161461Y127435D01*
X161470Y127433D01*
D02*
G37*
G36*
X140078D02*
X140078Y127432D01*
X140528Y127343D01*
X140532Y127351D01*
X140533Y127351D01*
X140951Y127072D01*
X140947Y127067D01*
X141012Y127024D01*
X141125Y126855D01*
X141125Y126855D01*
X141241Y126681D01*
X141261Y126579D01*
X141266Y126581D01*
X141336Y126229D01*
X141332Y126228D01*
X141384Y125827D01*
X141382Y125810D01*
X141382Y125810D01*
X141384Y125792D01*
X141329Y125372D01*
X141333Y125372D01*
X141261Y125010D01*
X141255Y125012D01*
X141241Y124942D01*
X141105Y124739D01*
X141028Y124624D01*
X140909Y124544D01*
X140909Y124544D01*
X140574Y124320D01*
X140459Y124297D01*
X140457Y124301D01*
X139983Y124206D01*
X139983Y124204D01*
X139978Y124203D01*
X139370Y124324D01*
X139373Y124330D01*
X139358Y124333D01*
X139106Y124502D01*
X139105Y124502D01*
X138924Y124622D01*
X138854Y124728D01*
X139313Y125120D01*
X139301Y125109D01*
X139313Y125091D01*
X139626Y124882D01*
X139626Y124882D01*
X139641Y124872D01*
X139989Y124803D01*
X139995Y124804D01*
X139994Y124805D01*
X140005Y124803D01*
X140291Y124860D01*
X140291Y124861D01*
X140325Y124868D01*
X140531Y125005D01*
X140553Y124982D01*
X140575Y124992D01*
X140682Y125251D01*
X140689Y125248D01*
X140753Y125567D01*
X140749Y125587D01*
X138801Y125586D01*
Y126100D01*
X138777Y126099D01*
X138773Y126123D01*
X138877Y126647D01*
X138879Y126646D01*
X138882Y126661D01*
X139133Y127037D01*
X139175Y127065D01*
X139171Y127069D01*
X139578Y127341D01*
X139590Y127343D01*
X139592Y127340D01*
X140068Y127435D01*
X140078Y127433D01*
D02*
G37*
G36*
X154083Y127452D02*
X154082Y127438D01*
X154099Y127441D01*
X154537Y127354D01*
X154537Y127353D01*
X154671Y127326D01*
X154908Y127168D01*
X154908Y127167D01*
X155014Y127097D01*
X155164Y126871D01*
X155170Y126873D01*
X155182Y126854D01*
X155258Y126473D01*
X155254Y126453D01*
X155257Y126436D01*
X155189Y126091D01*
X155187Y126092D01*
X155186Y126085D01*
X155028Y125850D01*
X154989Y125823D01*
X154991Y125821D01*
X154722Y125642D01*
X154704Y125638D01*
X154704Y125636D01*
X154346Y125564D01*
X153796Y125523D01*
X153795Y125529D01*
X153628Y125496D01*
X153629Y125494D01*
X153503Y125441D01*
X153505Y125438D01*
X153475Y125426D01*
X153439Y125340D01*
X153439Y125340D01*
X153392Y125224D01*
X153394Y125219D01*
X153391Y125220D01*
X153387Y125212D01*
X153457Y125044D01*
X153455Y125043D01*
X153490Y124959D01*
X153588Y124919D01*
X153588Y124919D01*
X153662Y124870D01*
X153786Y124845D01*
X153786Y124845D01*
X154018Y124799D01*
X154028Y124801D01*
X154028Y124795D01*
X154041Y124793D01*
X154567Y124898D01*
X154569Y124895D01*
X155025Y125200D01*
X155443Y124787D01*
X155464Y124765D01*
X154823Y124336D01*
X154821Y124336D01*
X154818Y124342D01*
X154089Y124197D01*
X154077Y124200D01*
X154077Y124201D01*
X154060Y124198D01*
X153579Y124294D01*
X153579Y124294D01*
X153392Y124331D01*
X153165Y124483D01*
X153165Y124483D01*
X153015Y124583D01*
X152882Y124782D01*
X152880Y124781D01*
X152841Y124839D01*
X152775Y125172D01*
X152778Y125189D01*
X152772Y125189D01*
X152770Y125198D01*
X152837Y125533D01*
X152837Y125533D01*
X152851Y125603D01*
X152998Y125823D01*
X152998Y125822D01*
X153040Y125886D01*
X153270Y126039D01*
X153272Y126040D01*
X153270Y126045D01*
X153278Y126050D01*
X153467Y126088D01*
X153467Y126088D01*
X153690Y126132D01*
X154204Y126154D01*
X154205Y126146D01*
X154405Y126185D01*
X154404Y126187D01*
X154542Y126244D01*
X154545Y126241D01*
X154550Y126243D01*
X154594Y126349D01*
X154593Y126349D01*
X154634Y126447D01*
X154640Y126446D01*
X154643Y126455D01*
X154534Y126721D01*
X154511Y126730D01*
X154510Y126729D01*
X154337Y126801D01*
X154336Y126795D01*
X154102Y126842D01*
X154082Y126838D01*
X154083Y126840D01*
X154063Y126845D01*
X153627Y126758D01*
X153619Y126778D01*
X153618Y126778D01*
X153252Y126533D01*
X152866Y126988D01*
X152859Y126996D01*
X153336Y127314D01*
X153375Y127322D01*
X153378Y127317D01*
X153705Y127382D01*
X153705Y127383D01*
X154070Y127455D01*
X154083Y127452D01*
D02*
G37*
G36*
X164270Y127431D02*
X164269Y127428D01*
X164281Y127430D01*
X164692Y127348D01*
X164715Y127334D01*
X164714Y127331D01*
X165038Y127115D01*
X165079Y127054D01*
X165071Y127374D01*
X165695D01*
Y119332D01*
X165071D01*
Y121180D01*
X165085Y121180D01*
X165088Y121194D01*
X165034Y121462D01*
X165029Y121460D01*
X164928Y121702D01*
X164929Y121702D01*
X164926Y121709D01*
X164698Y121803D01*
X164702Y121812D01*
X164461Y121860D01*
X164453Y121858D01*
X164453Y121858D01*
X164446Y121860D01*
X164210Y121813D01*
X164214Y121803D01*
X163988Y121710D01*
X163985Y121702D01*
X163985Y121702D01*
X163885Y121460D01*
X163879Y121462D01*
X163826Y121194D01*
X163828Y121180D01*
X163842Y119332D01*
X163218D01*
Y121395D01*
X163192Y121395D01*
X163191Y121402D01*
X163239Y121643D01*
X163239Y121643D01*
X163283Y121866D01*
X163284Y121867D01*
X163287Y121865D01*
X163476Y122149D01*
X163552Y122199D01*
X163550Y122202D01*
X163880Y122423D01*
X163888Y122424D01*
X163891Y122418D01*
X164252Y122490D01*
X164252Y122489D01*
X164272Y122493D01*
X164701Y122407D01*
X164719Y122395D01*
X164717Y122390D01*
X164996Y122204D01*
X165062Y122105D01*
X165071Y122104D01*
X165071Y124567D01*
X165091Y124580D01*
X165071Y124599D01*
Y124567D01*
X164709Y124325D01*
X164708Y124326D01*
X164654Y124290D01*
X164285Y124216D01*
X164269Y124219D01*
X164270Y124213D01*
X164261Y124212D01*
X164005Y124263D01*
Y124263D01*
X163853Y124293D01*
X163778Y124343D01*
X163777Y124342D01*
X163515Y124518D01*
X163437Y124634D01*
X163437Y124634D01*
X163301Y124838D01*
X163264Y125024D01*
X163264Y125024D01*
X163202Y125333D01*
X163220Y125334D01*
X163176Y125780D01*
X163180Y125819D01*
X163180Y125819D01*
X163176Y125858D01*
X163220Y126306D01*
X163202Y126307D01*
X163264Y126616D01*
X163264Y126616D01*
X163301Y126803D01*
X163437Y127007D01*
X163436Y127008D01*
X163512Y127121D01*
X163777Y127299D01*
X163778Y127297D01*
X163860Y127352D01*
X164005Y127381D01*
X164005Y127381D01*
X164261Y127432D01*
X164270Y127431D01*
D02*
G37*
G36*
X149280Y125311D02*
X149306Y125311D01*
X149308Y125303D01*
X149260Y125062D01*
X149260Y125062D01*
X149215Y124838D01*
X149212Y124839D01*
X149212Y124838D01*
X149023Y124556D01*
X148947Y124505D01*
X148949Y124503D01*
X148625Y124286D01*
X148609Y124283D01*
X148607Y124288D01*
X148240Y124216D01*
X148241Y124217D01*
X148221Y124213D01*
X147797Y124298D01*
X147778Y124310D01*
X147780Y124315D01*
X147503Y124500D01*
X147438Y124598D01*
X147427Y124599D01*
Y124271D01*
X146803D01*
Y127374D01*
X147427D01*
Y125523D01*
X147413Y125523D01*
X147411Y125509D01*
X147464Y125239D01*
X147470Y125241D01*
X147570Y124999D01*
X147569Y124999D01*
X147571Y124994D01*
X147799Y124900D01*
X147795Y124890D01*
X148031Y124844D01*
X148038Y124845D01*
X148038Y124845D01*
X148046Y124843D01*
X148286Y124891D01*
X148283Y124900D01*
X148513Y124995D01*
X148514Y124999D01*
X148513Y124999D01*
X148614Y125241D01*
X148619Y125239D01*
X148673Y125509D01*
X148670Y125523D01*
X148656Y127374D01*
X149280D01*
Y125311D01*
D02*
G37*
G36*
X165071Y124567D02*
D01*
D01*
D01*
D01*
D02*
G37*
G36*
X158546Y122407D02*
X158564Y122395D01*
X158562Y122390D01*
X158841Y122204D01*
X158907Y122105D01*
X158916Y122104D01*
Y122435D01*
X159540D01*
Y119332D01*
X158916D01*
Y121197D01*
X158929Y121197D01*
X158933Y121216D01*
X158878Y121495D01*
X158870Y121492D01*
X158787Y121692D01*
X158744Y121710D01*
X158732Y121696D01*
X158562Y121810D01*
X158313Y121860D01*
X158312Y121860D01*
X158312Y121895D01*
X158104Y121809D01*
X158100Y121820D01*
X158078Y121816D01*
X157898Y121695D01*
X157449Y122232D01*
X157446Y122235D01*
X157723Y122420D01*
X157759Y122427D01*
X157760Y122423D01*
X158097Y122490D01*
X158097Y122490D01*
X158097Y122489D01*
X158117Y122493D01*
X158546Y122407D01*
D02*
G37*
G36*
X145891D02*
X145909Y122395D01*
X145907Y122390D01*
X146186Y122204D01*
X146251Y122105D01*
X146261Y122104D01*
Y122435D01*
X146885D01*
Y119332D01*
X146261D01*
Y121197D01*
X146274Y121197D01*
X146278Y121216D01*
X146222Y121495D01*
X146215Y121492D01*
X146132Y121692D01*
X146088Y121710D01*
X146077Y121696D01*
X145907Y121810D01*
X145657Y121860D01*
X145657Y121860D01*
X145657Y121895D01*
X145449Y121809D01*
X145445Y121820D01*
X145423Y121816D01*
X145243Y121695D01*
X144794Y122232D01*
X144791Y122235D01*
X145068Y122420D01*
X145103Y122427D01*
X145105Y122423D01*
X145442Y122490D01*
X145442Y122490D01*
X145442Y122489D01*
X145462Y122493D01*
X145891Y122407D01*
D02*
G37*
G36*
X143474Y122494D02*
X143474Y122494D01*
X143925Y122404D01*
X143928Y122413D01*
X143930Y122413D01*
X144347Y122133D01*
X144344Y122129D01*
X144408Y122086D01*
X144521Y121917D01*
X144521Y121917D01*
X144638Y121743D01*
X144658Y121641D01*
X144663Y121642D01*
X144733Y121291D01*
X144728Y121290D01*
X144781Y120888D01*
X144779Y120872D01*
X144779Y120872D01*
X144781Y120853D01*
X144726Y120434D01*
X144730Y120433D01*
X144658Y120071D01*
X144651Y120074D01*
X144637Y120003D01*
X144502Y119801D01*
X144425Y119685D01*
X144306Y119606D01*
X144306Y119605D01*
X143971Y119381D01*
X143855Y119359D01*
X143854Y119362D01*
X143380Y119268D01*
X143380Y119266D01*
X143375Y119265D01*
X142767Y119386D01*
X142769Y119392D01*
X142755Y119395D01*
X142502Y119563D01*
X142502Y119563D01*
X142321Y119684D01*
X142250Y119790D01*
X142710Y120182D01*
X142698Y120170D01*
X142710Y120153D01*
X143022Y119944D01*
X143022Y119944D01*
X143038Y119934D01*
X143386Y119864D01*
X143391Y119866D01*
X143391Y119867D01*
X143402Y119865D01*
X143688Y119922D01*
X143688Y119922D01*
X143721Y119929D01*
X143928Y120067D01*
X143949Y120044D01*
X143971Y120053D01*
X144079Y120312D01*
X144086Y120310D01*
X144149Y120629D01*
X144145Y120648D01*
X142198Y120648D01*
Y121161D01*
X142174Y121161D01*
X142169Y121184D01*
X142273Y121709D01*
X142275Y121708D01*
X142278Y121723D01*
X142529Y122099D01*
X142571Y122127D01*
X142568Y122131D01*
X142974Y122402D01*
X142987Y122405D01*
X142988Y122402D01*
X143465Y122496D01*
X143474Y122494D01*
D02*
G37*
G36*
X161519Y122500D02*
X161518Y122493D01*
X161555Y122500D01*
X161834Y122445D01*
X161834Y122445D01*
X162095Y122393D01*
X162116Y122378D01*
X162115Y122376D01*
X162446Y122154D01*
X162538Y122017D01*
X162061Y121642D01*
X162010Y121767D01*
X161847Y121834D01*
X161849Y121841D01*
X161686Y121873D01*
X161686Y121874D01*
X161496Y121912D01*
X161488Y121910D01*
X161489Y121900D01*
X161448Y121908D01*
X161216Y121862D01*
X161214Y121875D01*
X161019Y121794D01*
X161020Y121792D01*
X160947Y121762D01*
X160905Y121662D01*
X160906Y121662D01*
X160836Y121493D01*
X160842Y121481D01*
X160869Y121153D01*
X161709D01*
X161709Y121176D01*
X161718Y121178D01*
X162138Y121094D01*
X162137Y121090D01*
X162180Y121082D01*
X162438Y120909D01*
X162449Y120893D01*
X162450Y120894D01*
X162634Y120619D01*
X162639Y120594D01*
X162639Y120594D01*
X162709Y120243D01*
X162706Y120232D01*
X162705Y120232D01*
X162707Y120220D01*
X162635Y119853D01*
X162634Y119852D01*
X162631Y119853D01*
X162446Y119578D01*
X162408Y119552D01*
X162413Y119548D01*
X162137Y119364D01*
X162079Y119353D01*
X162080Y119349D01*
X161626Y119258D01*
X161626Y119254D01*
X161613Y119251D01*
X161355Y119303D01*
X161355Y119303D01*
X161135Y119347D01*
X161141Y119362D01*
X160941Y119445D01*
X160880Y119594D01*
X160869Y119595D01*
Y119321D01*
X160265D01*
Y121446D01*
X160237Y121446D01*
X160289Y121708D01*
X160289Y121708D01*
X160333Y121931D01*
X160337Y121936D01*
X160341Y121934D01*
X160341Y121934D01*
X160503Y122177D01*
X160609Y122248D01*
X160609Y122248D01*
X160800Y122375D01*
X161008Y122416D01*
X161008Y122417D01*
X161474Y122510D01*
X161519Y122500D01*
D02*
G37*
G36*
X148874D02*
X148872Y122493D01*
X148909Y122500D01*
X149188Y122445D01*
X149188Y122445D01*
X149449Y122393D01*
X149471Y122378D01*
X149470Y122376D01*
X149801Y122154D01*
X149892Y122017D01*
X149416Y121642D01*
X149364Y121767D01*
X149201Y121834D01*
X149203Y121841D01*
X149040Y121873D01*
X149040Y121874D01*
X148851Y121912D01*
X148843Y121910D01*
X148843Y121900D01*
X148802Y121908D01*
X148571Y121862D01*
X148568Y121875D01*
X148373Y121794D01*
X148374Y121792D01*
X148301Y121762D01*
X148260Y121662D01*
X148260Y121662D01*
X148191Y121493D01*
X148196Y121481D01*
X148223Y121153D01*
X149064D01*
X149064Y121176D01*
X149072Y121178D01*
X149493Y121094D01*
X149492Y121090D01*
X149534Y121082D01*
X149793Y120909D01*
X149804Y120893D01*
X149805Y120894D01*
X149988Y120619D01*
X149993Y120594D01*
X149993Y120594D01*
X150063Y120243D01*
X150061Y120232D01*
X150059Y120232D01*
X150062Y120220D01*
X149989Y119853D01*
X149989Y119852D01*
X149985Y119853D01*
X149801Y119578D01*
X149763Y119552D01*
X149767Y119548D01*
X149492Y119364D01*
X149434Y119352D01*
X149435Y119349D01*
X148981Y119258D01*
X148981Y119254D01*
X148968Y119251D01*
X148709Y119303D01*
X148709Y119303D01*
X148489Y119347D01*
X148496Y119362D01*
X148295Y119445D01*
X148234Y119594D01*
X148223Y119595D01*
Y119321D01*
X147619D01*
Y121446D01*
X147591Y121446D01*
X147643Y121708D01*
X147643Y121708D01*
X147687Y121931D01*
X147691Y121936D01*
X147696Y121934D01*
X147696Y121934D01*
X147858Y122177D01*
X147963Y122248D01*
X147963Y122248D01*
X148154Y122375D01*
X148363Y122416D01*
X148363Y122417D01*
X148828Y122510D01*
X148874Y122500D01*
D02*
G37*
G36*
X162062Y121642D02*
X162059Y121641D01*
X162061Y121642D01*
X162062Y121642D01*
D02*
G37*
G36*
X149416D02*
X149414Y121641D01*
X149416Y121642D01*
X149416Y121642D01*
D02*
G37*
G36*
X153564Y119332D02*
X153014D01*
X152365Y121503D01*
X152354D01*
X151704Y119332D01*
X151154D01*
X150162Y122435D01*
X150823D01*
X151417Y120262D01*
X151430D01*
X152131Y122435D01*
X152586D01*
X153289Y120262D01*
X153300D01*
X153896Y122435D01*
X154556D01*
X153564Y119332D01*
D02*
G37*
G36*
X155555Y122134D02*
X155538Y122122D01*
X155555Y122104D01*
Y122134D01*
X155920Y122377D01*
X155921Y122375D01*
X155985Y122418D01*
X156344Y122489D01*
X156358Y122487D01*
X156357Y122493D01*
X156366Y122494D01*
X156624Y122443D01*
X156624Y122443D01*
X156771Y122414D01*
X156852Y122359D01*
X156853Y122361D01*
X157110Y122189D01*
X157190Y122069D01*
X157190Y122070D01*
X157327Y121864D01*
X157364Y121678D01*
X157365Y121678D01*
X157426Y121370D01*
X157408Y121370D01*
X157451Y120926D01*
X157448Y120887D01*
X157449Y120888D01*
X157452Y120849D01*
X157408Y120399D01*
X157427Y120399D01*
X157365Y120087D01*
X157364Y120087D01*
X157327Y119901D01*
X157190Y119695D01*
X157189Y119696D01*
X157107Y119573D01*
X156853Y119404D01*
X156853Y119405D01*
X156778Y119355D01*
X156624Y119324D01*
X156624Y119324D01*
X156366Y119273D01*
X156357Y119275D01*
X156358Y119278D01*
X156346Y119276D01*
X155933Y119358D01*
X155913Y119371D01*
X155914Y119373D01*
X155584Y119593D01*
X155548Y119648D01*
X155555Y119332D01*
X154931D01*
Y123688D01*
X155555D01*
Y122134D01*
D02*
G37*
%LPC*%
G36*
X167562Y126800D02*
X167545Y126796D01*
X167529Y126800D01*
X167253Y126745D01*
X167246Y126740D01*
X167250Y126729D01*
X167069Y126654D01*
X167033Y126565D01*
X167043Y126558D01*
X166946Y126413D01*
X166923Y126295D01*
X166924Y126295D01*
X166886Y126108D01*
X166889Y126108D01*
X166854Y125841D01*
X166857Y125819D01*
X166857D01*
X166858Y125819D01*
X166890Y125819D01*
X166857Y125819D01*
X166855Y125797D01*
X166890Y125531D01*
X166887Y125531D01*
X166924Y125344D01*
X166923Y125344D01*
X166946Y125230D01*
X167043Y125084D01*
X167033Y125077D01*
X167069Y124988D01*
X167250Y124913D01*
X167246Y124902D01*
X167253Y124897D01*
X167529Y124842D01*
X167545Y124845D01*
X167562Y124842D01*
X167841Y124897D01*
X167847Y124902D01*
X167842Y124913D01*
X168018Y124986D01*
X168057Y125078D01*
X168048Y125084D01*
X168145Y125229D01*
X168168Y125345D01*
X168168Y125345D01*
X168205Y125534D01*
X168203Y125534D01*
X168239Y125803D01*
X168236Y125826D01*
X168234Y125826D01*
X168237Y125847D01*
X168202Y126109D01*
X168205Y126110D01*
X168168Y126295D01*
X168168Y126295D01*
X168145Y126412D01*
X168048Y126558D01*
X168057Y126564D01*
X168018Y126656D01*
X167842Y126729D01*
X167847Y126740D01*
X167841Y126744D01*
X167562Y126800D01*
D02*
G37*
G36*
X168858Y125826D02*
X168825Y125826D01*
X168858Y125826D01*
X168858Y125826D01*
D02*
G37*
%LPD*%
G36*
X167545Y126796D02*
X167545Y126796D01*
X167545Y126796D01*
X167545Y126796D01*
D02*
G37*
G36*
Y124845D02*
X167545Y124845D01*
X167545Y124845D01*
X167545Y124845D01*
D02*
G37*
%LPC*%
G36*
X151143Y126800D02*
X151126Y126796D01*
X151109Y126800D01*
X150833Y126745D01*
X150826Y126740D01*
X150830Y126729D01*
X150650Y126654D01*
X150613Y126565D01*
X150623Y126558D01*
X150526Y126413D01*
X150503Y126295D01*
X150504Y126295D01*
X150467Y126108D01*
X150470Y126108D01*
X150434Y125841D01*
X150437Y125819D01*
X150437D01*
X150438Y125819D01*
X150470Y125819D01*
X150437Y125819D01*
X150435Y125797D01*
X150470Y125531D01*
X150467Y125531D01*
X150504Y125344D01*
X150503Y125344D01*
X150526Y125230D01*
X150623Y125084D01*
X150613Y125077D01*
X150649Y124988D01*
X150830Y124913D01*
X150826Y124902D01*
X150833Y124897D01*
X151109Y124842D01*
X151126Y124845D01*
X151143Y124842D01*
X151421Y124897D01*
X151427Y124902D01*
X151422Y124913D01*
X151599Y124986D01*
X151637Y125078D01*
X151628Y125084D01*
X151725Y125229D01*
X151748Y125345D01*
X151748Y125345D01*
X151786Y125534D01*
X151783D01*
X151819Y125803D01*
X151816Y125826D01*
X151814Y125826D01*
X151817Y125847D01*
X151782Y126109D01*
X151785Y126110D01*
X151748Y126295D01*
X151748Y126295D01*
X151725Y126412D01*
X151628Y126558D01*
X151637Y126564D01*
X151599Y126656D01*
X151422Y126729D01*
X151427Y126740D01*
X151421Y126744D01*
X151143Y126800D01*
D02*
G37*
G36*
X152438Y125826D02*
X152405Y125826D01*
X152438Y125826D01*
X152438Y125826D01*
D02*
G37*
%LPD*%
G36*
X151126Y126796D02*
X151125Y126796D01*
X151126Y126796D01*
X151126Y126796D01*
D02*
G37*
G36*
Y124845D02*
X151126Y124845D01*
X151125Y124845D01*
X151126Y124845D01*
D02*
G37*
%LPC*%
G36*
X161478Y126835D02*
X161470Y126833D01*
X161470Y126833D01*
X161462Y126834D01*
X161215Y126785D01*
X161214Y126786D01*
X161213Y126785D01*
X161011Y126651D01*
X161006Y126643D01*
X161006Y126643D01*
X160873Y126444D01*
X160866Y126411D01*
X160863Y126412D01*
X160801Y126100D01*
X162126Y126100D01*
X162143Y126100D01*
X162081Y126412D01*
X162078Y126411D01*
X162071Y126446D01*
X161940Y126643D01*
X161940Y126643D01*
X161935Y126650D01*
X161733Y126784D01*
X161729Y126785D01*
X161729Y126785D01*
X161478Y126835D01*
D02*
G37*
G36*
X140086Y126835D02*
X140078Y126833D01*
X140078Y126833D01*
X140070Y126834D01*
X139822Y126785D01*
X139822Y126786D01*
X139820Y126785D01*
X139619Y126651D01*
X139613Y126643D01*
X139613Y126643D01*
X139480Y126444D01*
X139474Y126411D01*
X139471Y126412D01*
X139409Y126100D01*
X140733Y126100D01*
X140750Y126100D01*
X140688Y126412D01*
X140685Y126411D01*
X140678Y126447D01*
X140547Y126643D01*
X140547Y126643D01*
X140543Y126650D01*
X140341Y126784D01*
X140336Y126785D01*
X140336Y126785D01*
X140086Y126835D01*
D02*
G37*
G36*
X155254Y126453D02*
X155254Y126452D01*
X155254Y126453D01*
X155254Y126453D01*
D02*
G37*
G36*
X164449Y126804D02*
X164261Y126767D01*
X164259Y126776D01*
X164105Y126713D01*
X164105Y126712D01*
X164005Y126671D01*
X163927Y126482D01*
X163923Y126483D01*
X163795Y125840D01*
X163800Y125818D01*
X163801Y125819D01*
X163796Y125796D01*
X163923Y125156D01*
X163927Y125157D01*
X164004Y124971D01*
X164105Y124929D01*
X164105Y124929D01*
X164259Y124865D01*
X164261Y124875D01*
X164449Y124837D01*
X164459Y124839D01*
X164459Y124840D01*
X164468Y124838D01*
X164656Y124876D01*
X164658Y124867D01*
X164812Y124930D01*
X164812Y124931D01*
X164907Y124970D01*
X164989Y125168D01*
X164991Y125167D01*
X165119Y125811D01*
X165117Y125819D01*
X165118Y125819D01*
X165119Y125826D01*
X164991Y126473D01*
X164989Y126472D01*
X164906Y126671D01*
X164812Y126710D01*
X164812Y126711D01*
X164658Y126775D01*
X164656Y126766D01*
X164468Y126803D01*
X164459Y126801D01*
X164459Y126802D01*
X164449Y126804D01*
D02*
G37*
%LPD*%
G36*
X164459Y124840D02*
X164459Y124840D01*
X164459Y124856D01*
X164459Y124840D01*
D02*
G37*
%LPC*%
G36*
X143482Y121896D02*
X143474Y121895D01*
X143474Y121895D01*
X143466Y121896D01*
X143219Y121847D01*
X143219Y121847D01*
X143217Y121847D01*
X143015Y121712D01*
X143010Y121704D01*
X143010Y121704D01*
X142877Y121505D01*
X142870Y121473D01*
X142867Y121474D01*
X142805Y121162D01*
X144130Y121161D01*
X144147Y121162D01*
X144085Y121473D01*
X144082Y121472D01*
X144075Y121508D01*
X143944Y121705D01*
X143944Y121704D01*
X143939Y121711D01*
X143738Y121846D01*
X143733Y121847D01*
X143733Y121847D01*
X143482Y121896D01*
D02*
G37*
G36*
X161596Y120657D02*
X160869Y120639D01*
Y120411D01*
X160855Y120412D01*
X160849Y120385D01*
X160902Y120124D01*
X160903Y120124D01*
X160944Y120025D01*
X160946Y120026D01*
X160966Y119977D01*
X161009Y119959D01*
X161010Y119959D01*
X161222Y119871D01*
X161224Y119889D01*
X161499Y119835D01*
X161551Y119845D01*
X161550Y119855D01*
X161568Y119851D01*
X161810Y119899D01*
X161811Y119896D01*
X162000Y119975D01*
X161996Y119979D01*
X162039Y119997D01*
X162088Y120116D01*
X162088Y120117D01*
X162147Y120260D01*
X162146Y120262D01*
X162144Y120261D01*
X162151Y120277D01*
X162091Y120421D01*
X162091Y120421D01*
X162050Y120521D01*
X161997Y120543D01*
X161999Y120546D01*
X161830Y120616D01*
X161828Y120611D01*
X161596Y120657D01*
D02*
G37*
G36*
X148951D02*
X148223Y120639D01*
Y120411D01*
X148209Y120412D01*
X148204Y120385D01*
X148256Y120124D01*
X148257Y120124D01*
X148298Y120025D01*
X148300Y120026D01*
X148321Y119977D01*
X148363Y119959D01*
X148364Y119959D01*
X148576Y119871D01*
X148579Y119889D01*
X148853Y119835D01*
X148905Y119845D01*
X148904Y119855D01*
X148922Y119851D01*
X149165Y119899D01*
X149166Y119896D01*
X149355Y119975D01*
X149350Y119979D01*
X149393Y119997D01*
X149443Y120116D01*
X149442Y120117D01*
X149502Y120260D01*
X149501Y120262D01*
X149499Y120261D01*
X149505Y120277D01*
X149445Y120421D01*
X149446Y120421D01*
X149404Y120521D01*
X149352Y120543D01*
X149354Y120546D01*
X149184Y120616D01*
X149183Y120611D01*
X148951Y120657D01*
D02*
G37*
G36*
X156176Y121866D02*
X156166Y121864D01*
X156166Y121863D01*
X156157Y121865D01*
X155971Y121828D01*
X155969Y121836D01*
X155816Y121773D01*
X155816Y121772D01*
X155722Y121733D01*
X155640Y121534D01*
X155637Y121535D01*
X155509Y120891D01*
X155510Y120887D01*
X155510Y120888D01*
X155508Y120879D01*
X155637Y120230D01*
X155640Y120231D01*
X155722Y120032D01*
X155816Y119993D01*
X155816Y119992D01*
X155969Y119929D01*
X155971Y119937D01*
X156157Y119900D01*
X156167Y119902D01*
X156166Y119901D01*
X156176Y119899D01*
X156366Y119937D01*
X156368Y119926D01*
X156522Y119990D01*
X156521Y119991D01*
X156623Y120033D01*
X156700Y120219D01*
X156703Y120218D01*
X156832Y120862D01*
X156826Y120887D01*
X156831Y120909D01*
X156704Y121547D01*
X156700Y121546D01*
X156623Y121732D01*
X156521Y121774D01*
X156522Y121775D01*
X156368Y121838D01*
X156366Y121828D01*
X156176Y121866D01*
D02*
G37*
%LPD*%
G36*
X156167Y121863D02*
X156167Y121847D01*
X156166Y121863D01*
X156167Y121863D01*
D02*
G37*
G36*
X156826Y120887D02*
X156826Y120887D01*
X156826Y120888D01*
X156826Y120887D01*
D02*
G37*
D12*
X191567Y153000D02*
Y157165D01*
Y155499D01*
X192400D01*
X190734D01*
X191567D01*
Y157165D01*
X190734Y157998D01*
X188235Y156332D02*
Y153833D01*
X187402Y153000D01*
X184902D01*
Y156332D01*
X183236Y153000D02*
X181570D01*
X182403D01*
Y157998D01*
X183236D01*
X178238Y153000D02*
Y157165D01*
Y155499D01*
X179071D01*
X177405D01*
X178238D01*
Y157165D01*
X177405Y157998D01*
X174906Y153000D02*
X173240D01*
X174073D01*
Y156332D01*
X174906D01*
X170740Y153000D02*
X169074D01*
X169907D01*
Y157998D01*
X170740D01*
X166575Y153000D02*
X164909D01*
X165742D01*
Y157998D01*
X166575D01*
X159911Y153000D02*
X161577D01*
X162410Y153833D01*
Y155499D01*
X161577Y156332D01*
X159911D01*
X159077Y155499D01*
Y154666D01*
X162410D01*
X154079Y157998D02*
Y153000D01*
X156578D01*
X157411Y153833D01*
Y155499D01*
X156578Y156332D01*
X154079D01*
X147415Y157998D02*
Y153000D01*
X144915D01*
X144082Y153833D01*
Y154666D01*
Y155499D01*
X144915Y156332D01*
X147415D01*
X142416D02*
Y153833D01*
X141583Y153000D01*
X139084D01*
Y152167D01*
X139917Y151334D01*
X140750D01*
X139084Y153000D02*
Y156332D01*
X129087Y157998D02*
X132419D01*
Y153000D01*
X129087D01*
X132419Y155499D02*
X130753D01*
X127421Y153000D02*
X125755D01*
X126588D01*
Y157998D01*
X127421D01*
X120756Y153000D02*
X122423D01*
X123256Y153833D01*
Y155499D01*
X122423Y156332D01*
X120756D01*
X119923Y155499D01*
Y154666D01*
X123256D01*
X114925Y156332D02*
X117424D01*
X118257Y155499D01*
Y153833D01*
X117424Y153000D01*
X114925D01*
X113259Y156332D02*
Y153000D01*
Y154666D01*
X112426Y155499D01*
X111593Y156332D01*
X110760D01*
X107428Y153000D02*
X105761D01*
X104928Y153833D01*
Y155499D01*
X105761Y156332D01*
X107428D01*
X108261Y155499D01*
Y153833D01*
X107428Y153000D01*
X103262Y156332D02*
Y153833D01*
X102429Y153000D01*
X101596Y153833D01*
X100763Y153000D01*
X99930Y153833D01*
Y156332D01*
X152800Y104698D02*
Y98700D01*
X149801D01*
X148801Y99700D01*
Y100699D01*
Y101699D01*
X149801Y102699D01*
X152800D01*
X146802D02*
Y99700D01*
X145802Y98700D01*
X142803D01*
Y97700D01*
X143803Y96701D01*
X144803D01*
X142803Y98700D02*
Y102699D01*
X134806Y104698D02*
Y98700D01*
X131807D01*
X130807Y99700D01*
Y100699D01*
Y101699D01*
X131807Y102699D01*
X134806D01*
X128808D02*
Y99700D01*
X127808Y98700D01*
X124809D01*
Y102699D01*
X122810Y98700D02*
X120810D01*
X121810D01*
Y104698D01*
X122810D01*
X114812Y98700D02*
X116812D01*
X117811Y99700D01*
Y101699D01*
X116812Y102699D01*
X114812D01*
X113813Y101699D01*
Y100699D01*
X117811D01*
X111813Y98700D02*
Y104698D01*
Y100699D02*
X108814Y102699D01*
X111813Y100699D02*
X108814Y98700D01*
X105815D02*
X102816D01*
X101816Y99700D01*
X102816Y100699D01*
X104815D01*
X105815Y101699D01*
X104815Y102699D01*
X101816D01*
D105*
X155209Y136214D02*
G03*
X152465Y136214I-1372J2982D01*
G01*
X155209D02*
G03*
X155133Y136021I63J-136D01*
G01*
X157101Y131201D02*
G03*
X157297Y131120I139J57D01*
G01*
X158508Y131548D02*
G03*
X158366Y131562I-84J-124D01*
G01*
X160859Y129957D02*
G03*
X161049Y129976I84J124D01*
G01*
X163057Y131984D02*
G03*
X163075Y132174I-106J106D01*
G01*
X161471Y134667D02*
G03*
X161485Y134525I139J-57D01*
G01*
X162548Y137091D02*
G03*
X162437Y137001I28J-147D01*
G01*
X165334Y137628D02*
G03*
X165456Y137776I-28J147D01*
G01*
Y140616D02*
G03*
X165334Y140763I-150J-0D01*
G01*
X162437Y141391D02*
G03*
X162548Y141301I139J57D01*
G01*
X161485Y143867D02*
G03*
X161471Y143725I124J-84D01*
G01*
X163075Y146217D02*
G03*
X163057Y146407I-124J84D01*
G01*
X161049Y148416D02*
G03*
X160859Y148434I-106J-106D01*
G01*
X158366Y146829D02*
G03*
X158508Y146844I57J139D01*
G01*
X155942Y147906D02*
G03*
X156032Y147796I147J28D01*
G01*
X155404Y150693D02*
G03*
X155257Y150815I-147J-28D01*
G01*
X152417D02*
G03*
X152269Y150693I-0J-150D01*
G01*
X151642Y147796D02*
G03*
X151732Y147906I-57J139D01*
G01*
X149166Y146844D02*
G03*
X149308Y146829I84J124D01*
G01*
X146815Y148434D02*
G03*
X146625Y148416I-84J-124D01*
G01*
X144617Y146407D02*
G03*
X144599Y146217I106J-106D01*
G01*
X146203Y143725D02*
G03*
X146189Y143867I-139J57D01*
G01*
X145126Y141301D02*
G03*
X145237Y141391I-28J147D01*
G01*
X142340Y140763D02*
G03*
X142218Y140616I28J-147D01*
G01*
Y137776D02*
G03*
X142340Y137628I150J-0D01*
G01*
X145237Y137001D02*
G03*
X145126Y137091I-139J-57D01*
G01*
X146189Y134525D02*
G03*
X146203Y134667I-124J84D01*
G01*
X144599Y132174D02*
G03*
X144617Y131984I124J-84D01*
G01*
X146625Y129976D02*
G03*
X146815Y129957I106J106D01*
G01*
X149308Y131562D02*
G03*
X149166Y131548I-57J-139D01*
G01*
X150376Y131120D02*
G03*
X150573Y131201I57J139D01*
G01*
X152541Y136021D02*
G03*
X152465Y136214I-139J57D01*
G01*
X155133Y136021D02*
X157101Y131201D01*
X157297Y131120D02*
X158366Y131562D01*
X158508Y131548D02*
X160859Y129957D01*
X161049Y129976D02*
X163057Y131984D01*
X161485Y134525D02*
X163075Y132174D01*
X161471Y134667D02*
X162437Y137001D01*
X162548Y137091D02*
X165334Y137628D01*
X165456Y137776D02*
Y140616D01*
X162548Y141301D02*
X165334Y140763D01*
X161471Y143725D02*
X162437Y141391D01*
X161485Y143867D02*
X163075Y146217D01*
X161049Y148416D02*
X163057Y146407D01*
X158508Y146844D02*
X160859Y148434D01*
X156032Y147796D02*
X158366Y146829D01*
X155404Y150693D02*
X155942Y147906D01*
X152417Y150815D02*
X155257D01*
X151732Y147906D02*
X152269Y150693D01*
X149308Y146829D02*
X151642Y147796D01*
X146815Y148434D02*
X149166Y146844D01*
X144617Y146407D02*
X146625Y148416D01*
X144599Y146217D02*
X146189Y143867D01*
X145237Y141391D02*
X146203Y143725D01*
X142340Y140763D02*
X145126Y141301D01*
X142218Y137776D02*
Y140616D01*
X142340Y137628D02*
X145126Y137091D01*
X145237Y137001D02*
X146203Y134667D01*
X144599Y132174D02*
X146189Y134525D01*
X144617Y131984D02*
X146625Y129976D01*
X146815Y129957D02*
X149166Y131548D01*
X149308Y131562D02*
X150376Y131120D01*
X150573Y131201D02*
X152541Y136021D01*
D106*
X159862Y39551D02*
D03*
D107*
X161338Y38714D02*
D03*
D108*
Y40437D02*
D03*
X128789Y229336D02*
D03*
X127116Y12938D02*
D03*
D109*
X127903Y230812D02*
D03*
X128002Y11462D02*
D03*
D110*
X127067Y229336D02*
D03*
X128839Y12938D02*
D03*
D111*
X227064Y68973D02*
D03*
X28436Y186027D02*
D03*
D112*
X226204Y70436D02*
D03*
X29296Y184564D02*
D03*
D113*
X225342Y68945D02*
D03*
X30158Y186055D02*
D03*
D114*
X27485Y70688D02*
D03*
X228015Y186312D02*
D03*
D115*
X29182Y70702D02*
D03*
X226318Y186298D02*
D03*
D116*
X28321Y72194D02*
D03*
X227179Y184806D02*
D03*
M02*
