G04*
G04 #@! TF.GenerationSoftware,Altium Limited,CircuitMaker,2.3.0 (2.3.0.3)*
G04*
G04 Layer_Physical_Order=1*
G04 Layer_Color=25308*
%FSLAX25Y25*%
%MOIN*%
G70*
G04*
G04 #@! TF.SameCoordinates,DFAF08F0-1B05-4ABB-8EC1-2A918C0C2617*
G04*
G04*
G04 #@! TF.FilePolarity,Positive*
G04*
G01*
G75*
%ADD12C,0.01000*%
%ADD16C,0.00700*%
G04:AMPARAMS|DCode=17|XSize=19.68mil|YSize=35.43mil|CornerRadius=0mil|HoleSize=0mil|Usage=FLASHONLY|Rotation=330.000|XOffset=0mil|YOffset=0mil|HoleType=Round|Shape=Rectangle|*
%AMROTATEDRECTD17*
4,1,4,-0.01738,-0.01042,0.00033,0.02026,0.01738,0.01042,-0.00033,-0.02026,-0.01738,-0.01042,0.0*
%
%ADD17ROTATEDRECTD17*%

%ADD18R,0.01968X0.03543*%
%ADD19R,0.05315X0.04528*%
%ADD20R,0.03543X0.03347*%
%ADD21R,0.03543X0.01968*%
%ADD22R,0.04528X0.05315*%
%ADD23O,0.02362X0.06693*%
%ADD24R,0.09016X0.09016*%
G04:AMPARAMS|DCode=25|XSize=25.2mil|YSize=26.77mil|CornerRadius=0mil|HoleSize=0mil|Usage=FLASHONLY|Rotation=330.000|XOffset=0mil|YOffset=0mil|HoleType=Round|Shape=Rectangle|*
%AMROTATEDRECTD25*
4,1,4,-0.01760,-0.00529,-0.00422,0.01789,0.01760,0.00529,0.00422,-0.01789,-0.01760,-0.00529,0.0*
%
%ADD25ROTATEDRECTD25*%

G04:AMPARAMS|DCode=26|XSize=25.2mil|YSize=26.77mil|CornerRadius=0mil|HoleSize=0mil|Usage=FLASHONLY|Rotation=60.000|XOffset=0mil|YOffset=0mil|HoleType=Round|Shape=Rectangle|*
%AMROTATEDRECTD26*
4,1,4,0.00529,-0.01760,-0.01789,-0.00422,-0.00529,0.01760,0.01789,0.00422,0.00529,-0.01760,0.0*
%
%ADD26ROTATEDRECTD26*%

G04:AMPARAMS|DCode=27|XSize=45.28mil|YSize=55.12mil|CornerRadius=0mil|HoleSize=0mil|Usage=FLASHONLY|Rotation=240.000|XOffset=0mil|YOffset=0mil|HoleType=Round|Shape=Rectangle|*
%AMROTATEDRECTD27*
4,1,4,-0.01255,0.03338,0.03519,0.00583,0.01255,-0.03338,-0.03519,-0.00583,-0.01255,0.03338,0.0*
%
%ADD27ROTATEDRECTD27*%

%ADD28R,0.02677X0.02520*%
%ADD29R,0.02520X0.02677*%
G04:AMPARAMS|DCode=30|XSize=35.43mil|YSize=33.47mil|CornerRadius=0mil|HoleSize=0mil|Usage=FLASHONLY|Rotation=60.000|XOffset=0mil|YOffset=0mil|HoleType=Round|Shape=Rectangle|*
%AMROTATEDRECTD30*
4,1,4,0.00563,-0.02371,-0.02335,-0.00698,-0.00563,0.02371,0.02335,0.00698,0.00563,-0.02371,0.0*
%
%ADD30ROTATEDRECTD30*%

G04:AMPARAMS|DCode=31|XSize=35.43mil|YSize=33.47mil|CornerRadius=0mil|HoleSize=0mil|Usage=FLASHONLY|Rotation=150.000|XOffset=0mil|YOffset=0mil|HoleType=Round|Shape=Rectangle|*
%AMROTATEDRECTD31*
4,1,4,0.02371,0.00563,0.00698,-0.02335,-0.02371,-0.00563,-0.00698,0.02335,0.02371,0.00563,0.0*
%
%ADD31ROTATEDRECTD31*%

G04:AMPARAMS|DCode=32|XSize=53.15mil|YSize=45.28mil|CornerRadius=0mil|HoleSize=0mil|Usage=FLASHONLY|Rotation=240.000|XOffset=0mil|YOffset=0mil|HoleType=Round|Shape=Rectangle|*
%AMROTATEDRECTD32*
4,1,4,-0.00632,0.03433,0.03289,0.01170,0.00632,-0.03433,-0.03289,-0.01170,-0.00632,0.03433,0.0*
%
%ADD32ROTATEDRECTD32*%

%ADD33R,0.01575X0.05315*%
%ADD34R,0.03071X0.02284*%
%ADD35R,0.02284X0.03071*%
G04:AMPARAMS|DCode=36|XSize=55.12mil|YSize=137.8mil|CornerRadius=0mil|HoleSize=0mil|Usage=FLASHONLY|Rotation=150.000|XOffset=0mil|YOffset=0mil|HoleType=Round|Shape=Rectangle|*
%AMROTATEDRECTD36*
4,1,4,0.05832,0.04589,-0.01058,-0.07345,-0.05832,-0.04589,0.01058,0.07345,0.05832,0.04589,0.0*
%
%ADD36ROTATEDRECTD36*%

G04:AMPARAMS|DCode=37|XSize=62.99mil|YSize=98.42mil|CornerRadius=0mil|HoleSize=0mil|Usage=FLASHONLY|Rotation=120.000|XOffset=0mil|YOffset=0mil|HoleType=Round|Shape=Rectangle|*
%AMROTATEDRECTD37*
4,1,4,0.05837,-0.00267,-0.02687,-0.05188,-0.05837,0.00267,0.02687,0.05188,0.05837,-0.00267,0.0*
%
%ADD37ROTATEDRECTD37*%

G04:AMPARAMS|DCode=38|XSize=21.65mil|YSize=51.18mil|CornerRadius=0mil|HoleSize=0mil|Usage=FLASHONLY|Rotation=330.000|XOffset=0mil|YOffset=0mil|HoleType=Round|Shape=Rectangle|*
%AMROTATEDRECTD38*
4,1,4,-0.02217,-0.01675,0.00342,0.02758,0.02217,0.01675,-0.00342,-0.02758,-0.02217,-0.01675,0.0*
%
%ADD38ROTATEDRECTD38*%

G04:AMPARAMS|DCode=39|XSize=27.56mil|YSize=39.37mil|CornerRadius=0mil|HoleSize=0mil|Usage=FLASHONLY|Rotation=150.000|XOffset=0mil|YOffset=0mil|HoleType=Round|Shape=Rectangle|*
%AMROTATEDRECTD39*
4,1,4,0.02178,0.01016,0.00209,-0.02394,-0.02178,-0.01016,-0.00209,0.02394,0.02178,0.01016,0.0*
%
%ADD39ROTATEDRECTD39*%

G04:AMPARAMS|DCode=40|XSize=19.68mil|YSize=35.43mil|CornerRadius=0mil|HoleSize=0mil|Usage=FLASHONLY|Rotation=45.000|XOffset=0mil|YOffset=0mil|HoleType=Round|Shape=Rectangle|*
%AMROTATEDRECTD40*
4,1,4,0.00557,-0.01949,-0.01949,0.00557,-0.00557,0.01949,0.01949,-0.00557,0.00557,-0.01949,0.0*
%
%ADD40ROTATEDRECTD40*%

%ADD41R,0.03347X0.03543*%
G04:AMPARAMS|DCode=42|XSize=19.68mil|YSize=35.43mil|CornerRadius=0mil|HoleSize=0mil|Usage=FLASHONLY|Rotation=210.000|XOffset=0mil|YOffset=0mil|HoleType=Round|Shape=Rectangle|*
%AMROTATEDRECTD42*
4,1,4,-0.00033,0.02026,0.01738,-0.01042,0.00033,-0.02026,-0.01738,0.01042,-0.00033,0.02026,0.0*
%
%ADD42ROTATEDRECTD42*%

G04:AMPARAMS|DCode=43|XSize=25.2mil|YSize=26.77mil|CornerRadius=0mil|HoleSize=0mil|Usage=FLASHONLY|Rotation=210.000|XOffset=0mil|YOffset=0mil|HoleType=Round|Shape=Rectangle|*
%AMROTATEDRECTD43*
4,1,4,0.00422,0.01789,0.01760,-0.00529,-0.00422,-0.01789,-0.01760,0.00529,0.00422,0.01789,0.0*
%
%ADD43ROTATEDRECTD43*%

G04:AMPARAMS|DCode=44|XSize=19.68mil|YSize=35.43mil|CornerRadius=0mil|HoleSize=0mil|Usage=FLASHONLY|Rotation=300.000|XOffset=0mil|YOffset=0mil|HoleType=Round|Shape=Rectangle|*
%AMROTATEDRECTD44*
4,1,4,-0.02026,-0.00033,0.01042,0.01738,0.02026,0.00033,-0.01042,-0.01738,-0.02026,-0.00033,0.0*
%
%ADD44ROTATEDRECTD44*%

%ADD45O,0.00787X0.02559*%
%ADD46O,0.02559X0.00787*%
%ADD47R,0.18504X0.18504*%
%ADD81R,0.06496X0.06496*%
%ADD82C,0.06496*%
%ADD85C,0.02000*%
%ADD86C,0.03000*%
%ADD87C,0.04000*%
%ADD88C,0.01500*%
%ADD89C,0.00800*%
%ADD90C,0.06000*%
%ADD91C,0.03937*%
%ADD92C,0.09000*%
%ADD93C,0.03000*%
%ADD94C,0.02598*%
%ADD95C,0.11811*%
G36*
X63128Y181583D02*
X63370Y181269D01*
X66819Y181995D01*
X67123Y181588D01*
X66956Y181239D01*
X64081Y178364D01*
X63639Y177703D01*
X63484Y176922D01*
Y175285D01*
X61980Y172680D01*
X66098Y170302D01*
X69067Y175443D01*
X68067Y176021D01*
X68001Y176517D01*
X68550Y177066D01*
X69962Y175654D01*
Y174500D01*
Y171545D01*
X68458Y168940D01*
X72576Y166562D01*
X75384Y171425D01*
X78247Y169994D01*
X78993Y169736D01*
X79781Y169679D01*
X80557Y169829D01*
X81267Y170175D01*
X81864Y170692D01*
X82306Y171347D01*
X82565Y172093D01*
X82621Y172881D01*
X82471Y173657D01*
X82125Y174367D01*
X81608Y174964D01*
X80953Y175406D01*
X77153Y177306D01*
X76407Y177565D01*
X75619Y177620D01*
X74843Y177471D01*
X74400Y177255D01*
X73969Y177275D01*
X73761Y177465D01*
X73443Y177941D01*
X72874Y178510D01*
X76000Y183926D01*
X81103Y185000D01*
Y185000D01*
X81246Y185038D01*
X85662Y168574D01*
X97465Y161759D01*
X114022Y171347D01*
Y184677D01*
X114439Y185177D01*
X121551D01*
Y172400D01*
X121729Y171505D01*
Y167140D01*
X121465Y166971D01*
X121465D01*
Y162687D01*
Y158829D01*
X121465D01*
X121740Y158471D01*
Y153794D01*
Y152663D01*
X121240Y152512D01*
X120974Y152910D01*
X120442Y153442D01*
X119780Y153884D01*
X119000Y154039D01*
X118220Y153884D01*
X117558Y153442D01*
X117116Y152780D01*
X116961Y152000D01*
X117116Y151220D01*
X117282Y150971D01*
X117132Y150341D01*
X116993Y150271D01*
X116100Y150449D01*
X115124Y150255D01*
X114298Y149702D01*
X113745Y148875D01*
X113551Y147900D01*
X113682Y147240D01*
X113729Y146760D01*
X113729Y146760D01*
X113729Y146760D01*
Y142240D01*
X114907D01*
X115094Y141959D01*
X115927Y141127D01*
X115927Y141127D01*
X116373Y140828D01*
X116900Y140724D01*
X116900Y140724D01*
X117870D01*
Y138976D01*
X117979Y138433D01*
X117979Y138191D01*
X117479Y137923D01*
X117473Y137927D01*
X116929Y138035D01*
X116569D01*
X112576Y142028D01*
Y145588D01*
X112472Y146115D01*
X112173Y146561D01*
X111288Y147447D01*
X112710Y149910D01*
X111139Y150818D01*
Y154589D01*
X112255Y156522D01*
X108205Y158860D01*
X105945Y154946D01*
X107061Y154302D01*
Y153672D01*
X106628Y153422D01*
X106205Y153666D01*
X102941Y148013D01*
X109014Y144508D01*
X109447Y144257D01*
X109447D01*
X109447D01*
X109824Y144157D01*
Y141457D01*
X109928Y140931D01*
X110227Y140484D01*
X113796Y136915D01*
X113736Y136614D01*
X113574Y136416D01*
X112931D01*
X110773Y138573D01*
X110327Y138872D01*
X109800Y138976D01*
X104870D01*
X99498Y144349D01*
X102060Y148786D01*
X95554Y152542D01*
X95365Y152214D01*
X94869Y152148D01*
X94044Y152974D01*
X94460Y153695D01*
X90546Y155955D01*
X88208Y151904D01*
X90900Y150350D01*
X93049Y148201D01*
X92291Y146889D01*
X95799Y144863D01*
Y144725D01*
X95904Y144198D01*
X96202Y143751D01*
X103327Y136627D01*
X103773Y136328D01*
X104300Y136223D01*
X104300Y136224D01*
X106106D01*
X106194Y135760D01*
X106194Y135760D01*
X106194Y135760D01*
Y132276D01*
X103570D01*
X92773Y143073D01*
X92634Y143166D01*
X92510Y143279D01*
X68103Y157989D01*
X67852Y158379D01*
X68000Y158634D01*
X68242Y159055D01*
X68845Y160099D01*
X70398D01*
X70648Y159666D01*
X70584Y159555D01*
X75384Y156783D01*
X75461Y156916D01*
X76950Y156079D01*
X77199Y155997D01*
X77430Y155870D01*
X80067Y155034D01*
X80183Y154883D01*
X80803Y154407D01*
X81525Y154108D01*
X82300Y154006D01*
X83075Y154108D01*
X83797Y154407D01*
X84417Y154883D01*
X84893Y155503D01*
X85192Y156225D01*
X85294Y157000D01*
X85192Y157775D01*
X84893Y158497D01*
X84417Y159117D01*
X83797Y159593D01*
X83075Y159892D01*
X82300Y159994D01*
X81587Y159900D01*
X79221Y160650D01*
X78092Y161286D01*
X78057Y161413D01*
Y161413D01*
X73257Y164185D01*
X73192Y164073D01*
X72666Y164178D01*
X69682D01*
X66702Y165898D01*
X63926Y161090D01*
X63285Y160892D01*
X55371Y165661D01*
X49519Y178280D01*
X50761Y180432D01*
X47325Y182416D01*
X45061Y178495D01*
X45025Y178516D01*
X42761Y174595D01*
X42725Y174616D01*
X39953Y169815D01*
X43390Y167831D01*
X43908Y168729D01*
X44391Y168858D01*
X45186Y168397D01*
X47303Y164662D01*
X46947Y164310D01*
X32872Y172526D01*
X33052Y173000D01*
X33300Y172951D01*
X34275Y173145D01*
X34444Y173081D01*
X34839Y172768D01*
X34839Y172768D01*
X38275Y170784D01*
X39533Y172962D01*
X39798Y173330D01*
X39834Y173484D01*
X40539Y174705D01*
X40575Y174684D01*
X41829Y176854D01*
X42028Y177091D01*
X42105Y177334D01*
X42839Y178605D01*
X42875Y178584D01*
X44135Y180765D01*
X44359Y181050D01*
X44417Y181254D01*
X45647Y183385D01*
X42210Y185369D01*
X41794Y184648D01*
X39641Y185746D01*
X39202Y186402D01*
X38375Y186955D01*
X37400Y187149D01*
X36424Y186955D01*
X35598Y186402D01*
X35045Y185575D01*
X34851Y184600D01*
X35045Y183624D01*
X35272Y183285D01*
X34971Y182835D01*
X34900Y182849D01*
X33924Y182655D01*
X33098Y182102D01*
X32545Y181275D01*
X32351Y180300D01*
X32545Y179324D01*
X33098Y178498D01*
X32968Y177983D01*
X32324Y177855D01*
X31498Y177302D01*
X30945Y176476D01*
X30751Y175500D01*
X30945Y174524D01*
X31267Y174042D01*
X30916Y173668D01*
X27793Y175491D01*
X23971Y189008D01*
X24149Y189900D01*
X23955Y190875D01*
X23402Y191702D01*
X22576Y192255D01*
X21600Y192449D01*
X20625Y192255D01*
X19798Y191702D01*
X19245Y190875D01*
X19051Y189900D01*
X19245Y188925D01*
X19798Y188098D01*
X20035Y187939D01*
X24093Y173590D01*
X24265Y173252D01*
X24431Y172911D01*
X24446Y172898D01*
X24454Y172881D01*
X24743Y172635D01*
X25027Y172383D01*
X45891Y160204D01*
X70555Y145726D01*
X71946Y144882D01*
X71712Y144439D01*
X28728Y132915D01*
X18335Y138984D01*
X25273Y151033D01*
X49197Y157454D01*
X22198Y173034D01*
X17202Y191617D01*
X17523Y192189D01*
X36093Y197181D01*
X63128Y181583D01*
D02*
G37*
G36*
X192649Y217882D02*
X199539Y205950D01*
X199553Y205835D01*
X193163Y181987D01*
X220122Y197553D01*
X220238Y197567D01*
X239138Y192493D01*
X239168Y192338D01*
X234126Y173514D01*
X234053Y173422D01*
X207094Y157858D01*
X230943Y151469D01*
X231035Y151396D01*
X232416Y148999D01*
X232127Y148499D01*
X201963D01*
X201744Y148999D01*
X202074Y149358D01*
X202441Y150058D01*
X202614Y150829D01*
X202581Y151618D01*
X202345Y152372D01*
X201923Y153039D01*
X199762Y155627D01*
X199181Y156162D01*
X198786Y156369D01*
X198765Y156944D01*
X206599Y161790D01*
X209739Y162345D01*
X209793Y162365D01*
X209850Y162369D01*
X210041Y162462D01*
X210240Y162539D01*
X210281Y162579D01*
X210333Y162604D01*
X210474Y162763D01*
X210628Y162911D01*
X210651Y162963D01*
X210689Y163006D01*
X214335Y169251D01*
X214610Y169631D01*
X214610Y169631D01*
X214610Y169631D01*
X218047Y171615D01*
X215707Y175668D01*
X215747Y175815D01*
X215747Y175815D01*
X212975Y180616D01*
X212789Y180508D01*
X210475Y184516D01*
X207039Y182532D01*
X207576Y181601D01*
X207352Y181084D01*
X207238Y180952D01*
X207107Y180837D01*
X207065Y180751D01*
X207002Y180677D01*
X206947Y180512D01*
X206870Y180355D01*
X206864Y180259D01*
X206834Y180167D01*
X206234Y175267D01*
X206246Y175098D01*
X206234Y174929D01*
X206266Y174833D01*
X206274Y174732D01*
X206350Y174580D01*
X206403Y174420D01*
X207762Y172030D01*
X206753Y168597D01*
X205853Y168427D01*
X205672Y168354D01*
X205528Y168407D01*
X205172Y168675D01*
Y170832D01*
X202658D01*
X202200Y170877D01*
X202051Y170832D01*
X199628D01*
Y168684D01*
X198731Y167590D01*
X194068Y166280D01*
X194030Y166330D01*
X193142Y167011D01*
X192109Y167439D01*
X191000Y167585D01*
X189891Y167439D01*
X188858Y167011D01*
X187970Y166330D01*
X187289Y165442D01*
X186861Y164409D01*
X186715Y163300D01*
X186861Y162191D01*
X187289Y161158D01*
X187225Y160781D01*
X184078Y158729D01*
X182230Y158698D01*
X182109Y159161D01*
X183142Y159589D01*
X184030Y160270D01*
X184711Y161158D01*
X185139Y162191D01*
X185285Y163300D01*
X185139Y164409D01*
X184711Y165442D01*
X184030Y166330D01*
X183142Y167011D01*
X182109Y167439D01*
X181000Y167585D01*
X179891Y167439D01*
X178858Y167011D01*
X177970Y166330D01*
X177289Y165442D01*
X177247Y165339D01*
X172300Y165339D01*
X171978Y165275D01*
X171653Y165234D01*
X171590Y165198D01*
X171520Y165184D01*
X171247Y165002D01*
X170962Y164839D01*
X168662Y162839D01*
X168636Y162805D01*
X168600Y162782D01*
X164588Y158993D01*
X164031Y159551D01*
X161225Y156745D01*
X162977Y154993D01*
X163105Y154788D01*
X163370Y154600D01*
X165145Y152825D01*
X165195Y152875D01*
X166873Y151197D01*
X166996Y150998D01*
X167268Y150802D01*
X169045Y149025D01*
X171851Y151831D01*
X171638Y152044D01*
X171646Y152544D01*
X173717Y154474D01*
X179716Y154576D01*
X179858Y154097D01*
X166433Y145706D01*
X166120Y146100D01*
X167675Y147655D01*
X163755Y151575D01*
X163705Y151525D01*
X159855Y155375D01*
X157049Y152569D01*
X158036Y151582D01*
X144444Y137991D01*
X140974D01*
X140962Y138486D01*
X141489Y138591D01*
X141936Y138889D01*
X147973Y144927D01*
X147973Y144927D01*
X148272Y145373D01*
X148377Y145900D01*
X148376Y145900D01*
Y161900D01*
X148272Y162427D01*
X148152Y162606D01*
X147973Y162873D01*
X147973Y162873D01*
X141476Y169370D01*
Y171119D01*
X141976Y171300D01*
X158824Y162161D01*
X170630Y168977D01*
X182141Y211942D01*
X182213Y212034D01*
X192480Y217955D01*
X192649Y217882D01*
D02*
G37*
G36*
X135324Y185177D02*
Y167100D01*
X135428Y166573D01*
X135727Y166127D01*
X142424Y159430D01*
Y148670D01*
X139230Y145476D01*
X137076D01*
X136885Y145938D01*
X137487Y146540D01*
X139106D01*
Y150729D01*
X139260D01*
Y155406D01*
X134740D01*
X134471Y155635D01*
Y155635D01*
X126329D01*
X126260Y156107D01*
Y158325D01*
X126577Y158596D01*
X126690Y158640D01*
X131306D01*
Y163160D01*
X126629D01*
X126535Y163621D01*
Y166971D01*
X126535D01*
X126406Y167140D01*
Y171352D01*
X126455Y171424D01*
X126649Y172400D01*
Y184823D01*
X127003Y185177D01*
X135324Y185177D01*
D02*
G37*
G36*
X237957Y139388D02*
X237868Y139256D01*
X227640Y133350D01*
X227525Y133336D01*
X195190Y142000D01*
X195256Y142500D01*
X232488D01*
Y147873D01*
X232988Y148007D01*
X237957Y139388D01*
D02*
G37*
G36*
X113912Y126235D02*
X113845Y126134D01*
X113736Y125591D01*
X113541Y125298D01*
X113489Y125287D01*
X113042Y124989D01*
X110930Y122876D01*
X105032D01*
Y124824D01*
X105086Y125100D01*
X105032Y125376D01*
Y126624D01*
X113300D01*
X113647Y126692D01*
X113912Y126235D01*
D02*
G37*
G36*
X108994Y117470D02*
Y113340D01*
X108579Y113135D01*
X105229D01*
Y113020D01*
X104729Y112752D01*
X104576Y112855D01*
X103600Y113049D01*
X103352Y113000D01*
X102976Y113435D01*
Y116330D01*
X104470Y117824D01*
X108640D01*
X108994Y117470D01*
D02*
G37*
G36*
X89148Y138206D02*
X99020Y128334D01*
X98829Y127872D01*
X97569D01*
Y125376D01*
X97514Y125100D01*
X97569Y124824D01*
Y122560D01*
X96594D01*
Y118040D01*
X100137D01*
X100404Y117540D01*
X100328Y117427D01*
X100224Y116900D01*
Y113870D01*
X98927Y112573D01*
X98712Y112538D01*
X98410Y112769D01*
X96490Y114690D01*
X95863Y115171D01*
X95133Y115473D01*
X94350Y115576D01*
X94225Y115559D01*
X93542Y116242D01*
X92880Y116684D01*
X92100Y116839D01*
X87363D01*
X87016Y117199D01*
X87596Y134264D01*
X87590Y134299D01*
X87597Y134333D01*
Y138549D01*
X88097Y138832D01*
X89148Y138206D01*
D02*
G37*
G36*
X138976Y119445D02*
X140748D01*
X140972Y119490D01*
X161964D01*
X166439Y115014D01*
X166964Y113790D01*
X167052Y113662D01*
X167117Y113521D01*
X167202Y113442D01*
X167268Y113347D01*
X167398Y113262D01*
X167512Y113157D01*
X168696Y112434D01*
X168927Y112029D01*
X166657Y108097D01*
X166157Y108231D01*
Y111109D01*
X158843D01*
Y111109D01*
X158757Y111109D01*
Y111109D01*
X151558D01*
Y111109D01*
X145395D01*
X144612Y111893D01*
X144520Y112113D01*
X144040Y112740D01*
X143413Y113221D01*
X142683Y113523D01*
X141900Y113626D01*
X141316Y113549D01*
X138700D01*
X138377Y113485D01*
X137991Y113802D01*
Y114934D01*
X138035Y115157D01*
Y116929D01*
X137927Y117473D01*
X137675Y117850D01*
X137800Y118260D01*
X137835Y118323D01*
X137869Y118369D01*
X137938Y118438D01*
Y119283D01*
X138433Y119553D01*
X138976Y119445D01*
D02*
G37*
G36*
X70845Y112612D02*
X82508Y119346D01*
X82921Y119160D01*
X82999Y119082D01*
X82939Y117305D01*
X82762Y116825D01*
X82495Y116739D01*
X82220Y116684D01*
X82119Y116617D01*
X82005Y116580D01*
X63999Y106510D01*
X63702Y106898D01*
X64255Y107724D01*
X64449Y108700D01*
X64255Y109676D01*
X63702Y110502D01*
X62875Y111055D01*
X62810Y111068D01*
X62220Y111995D01*
X62042Y112181D01*
X61892Y112390D01*
X61770Y112466D01*
X61671Y112570D01*
X61435Y112674D01*
X61216Y112809D01*
X59616Y113409D01*
X59562Y113418D01*
X59513Y113445D01*
X59171Y113482D01*
X58831Y113538D01*
X58777Y113525D01*
X58723Y113531D01*
X58392Y113435D01*
X58056Y113356D01*
X58012Y113324D01*
X57959Y113309D01*
X55135Y111839D01*
X54864Y111839D01*
X54332Y112761D01*
X52490Y111698D01*
X52420Y111684D01*
X52322Y111618D01*
X52210Y111583D01*
X49176Y109897D01*
X48569Y109382D01*
X48206Y108674D01*
X48118Y108368D01*
X46608Y107496D01*
X48946Y103445D01*
X52860Y105705D01*
X52351Y106587D01*
X52484Y107069D01*
X53729Y107761D01*
X55634Y107761D01*
X55722Y107779D01*
X55811Y107769D01*
X56110Y107856D01*
X56414Y107916D01*
X56489Y107966D01*
X56575Y107991D01*
X59035Y109272D01*
X59146Y109230D01*
X59382Y108858D01*
X59351Y108700D01*
X59545Y107724D01*
X60098Y106898D01*
X60925Y106345D01*
X61900Y106151D01*
X62572Y106285D01*
X62747Y105810D01*
X59745Y104131D01*
X59269Y104210D01*
X57285Y107647D01*
X54883Y106260D01*
X54793Y106233D01*
X54700Y106155D01*
X52484Y104875D01*
X54331Y101677D01*
X54223Y101044D01*
X46208Y96582D01*
X46194Y96569D01*
X46176Y96563D01*
X23976Y83663D01*
X23687Y83408D01*
X23394Y83157D01*
X23389Y83145D01*
X23379Y83137D01*
X23209Y82791D01*
X23036Y82447D01*
X21228Y75956D01*
X20998Y75802D01*
X20445Y74976D01*
X20251Y74000D01*
X20445Y73024D01*
X20998Y72198D01*
X21824Y71645D01*
X22035Y71603D01*
X22149Y71116D01*
X20754Y70040D01*
X19825Y69855D01*
X18998Y69302D01*
X18445Y68476D01*
X18251Y67500D01*
X18445Y66524D01*
X18998Y65698D01*
X19825Y65145D01*
X20800Y64951D01*
X21776Y65145D01*
X22602Y65698D01*
X23155Y66524D01*
X23206Y66781D01*
X28924Y71192D01*
X29828Y71694D01*
X30210Y71031D01*
X29836Y70736D01*
X29488Y70509D01*
X29235Y70262D01*
X28971Y70026D01*
X28951Y69986D01*
X28919Y69954D01*
X28779Y69629D01*
X28626Y69310D01*
X28193Y67633D01*
X27998Y67502D01*
X27445Y66676D01*
X27251Y65700D01*
X27445Y64724D01*
X27998Y63898D01*
X28824Y63345D01*
X29800Y63151D01*
X29873Y63166D01*
X30437Y62768D01*
X30545Y62225D01*
X31012Y61525D01*
X30741Y61080D01*
X16308Y64951D01*
X16238Y65122D01*
X21280Y83946D01*
X21353Y84038D01*
X48311Y99603D01*
X24417Y106028D01*
X17629Y117750D01*
X17803Y118357D01*
X27765Y124110D01*
X27881Y124124D01*
X70845Y112612D01*
D02*
G37*
G36*
X91324Y112550D02*
X91427Y111767D01*
X91729Y111037D01*
X92210Y110410D01*
X94460Y108160D01*
X95087Y107679D01*
X95301Y107591D01*
X95817Y107377D01*
X96265Y107318D01*
X96444Y106790D01*
X95730Y106076D01*
X84600D01*
X84073Y105972D01*
X83828Y105808D01*
X83209Y105880D01*
X82041Y107904D01*
X71785Y101983D01*
X72645Y100494D01*
X72514Y100011D01*
X72114Y99784D01*
X69028Y100596D01*
X69049Y100700D01*
X68855Y101675D01*
X68302Y102502D01*
X67475Y103055D01*
X67226Y103104D01*
X67148Y103598D01*
X83531Y112761D01*
X90856D01*
X91324Y112550D01*
D02*
G37*
G36*
X113371Y108065D02*
X113729Y107722D01*
Y106365D01*
X120165D01*
X120356Y105903D01*
X117530Y103076D01*
X109894D01*
X109806Y103540D01*
X109806Y103540D01*
X109806Y103540D01*
Y108060D01*
X110304Y108065D01*
X113371D01*
D02*
G37*
G36*
X132921Y113845D02*
X133465Y113736D01*
X134008Y113845D01*
X134252Y114007D01*
X134496Y113845D01*
X134922Y113760D01*
X134873Y113260D01*
X134294D01*
Y108740D01*
X137170D01*
X137377Y108240D01*
X132191Y103054D01*
X131901Y103114D01*
X131691Y103242D01*
Y113574D01*
X131890Y113736D01*
X132433Y113845D01*
X132677Y114007D01*
X132921Y113845D01*
D02*
G37*
G36*
X198844Y100101D02*
X201222Y89533D01*
X200819Y89237D01*
X197216Y91317D01*
X196928Y90819D01*
X196445Y90690D01*
X195322Y91342D01*
X196084Y92662D01*
X192477Y94745D01*
X189524Y89629D01*
X187533D01*
X186881Y90281D01*
X186385Y90613D01*
X186332Y90731D01*
X189606Y96402D01*
X186613Y98131D01*
X186747Y98631D01*
X188155D01*
X190213Y97443D01*
X192985Y102243D01*
X189732Y104121D01*
X189814Y104614D01*
X190839Y104814D01*
X198844Y100101D01*
D02*
G37*
G36*
X161941Y99928D02*
X161038Y98363D01*
X162599Y97462D01*
X162726Y96978D01*
X161782Y95376D01*
X161713Y95177D01*
X161620Y94987D01*
X161615Y94897D01*
X161585Y94813D01*
X161598Y94602D01*
X161585Y94391D01*
X161985Y91491D01*
X162014Y91407D01*
X162019Y91319D01*
X162048Y91258D01*
X161726Y90939D01*
X161659Y90906D01*
X157891Y93081D01*
X141884Y84555D01*
Y71403D01*
X141384Y70993D01*
X141200Y71029D01*
X135119D01*
X134912Y71485D01*
X135982Y72713D01*
X136167Y72992D01*
X136363Y73263D01*
X136384Y73320D01*
X136418Y73371D01*
X136525Y73688D01*
X136644Y74001D01*
X136650Y74062D01*
X136670Y74120D01*
X136690Y74454D01*
X136725Y74786D01*
X136361Y87529D01*
X137695Y88936D01*
X138159Y89575D01*
X138442Y90312D01*
X138447Y90361D01*
X148337Y100251D01*
X161000D01*
X161621Y100375D01*
X161941Y99928D01*
D02*
G37*
G36*
X64071Y101305D02*
X63951Y100700D01*
X64145Y99725D01*
X64698Y98898D01*
X65506Y98358D01*
X65805Y97845D01*
X65805Y97844D01*
X66332Y97249D01*
X67047Y96900D01*
X71881Y95628D01*
X72268Y95604D01*
X72654Y95577D01*
X72664Y95580D01*
X72675Y95579D01*
X73041Y95706D01*
X73409Y95828D01*
X74861Y96655D01*
X75687Y95223D01*
X75503Y94544D01*
X49521Y79797D01*
X49521Y79797D01*
X43508Y76387D01*
X39191Y78891D01*
X38970Y78966D01*
X38754Y79053D01*
X37154Y79353D01*
X36976Y79351D01*
X36801Y79373D01*
X36796Y79372D01*
X35990Y80769D01*
X32553Y78785D01*
X35325Y73984D01*
X35349Y73998D01*
X37725Y69884D01*
X37749Y69898D01*
X40125Y65784D01*
X43561Y67768D01*
X43337Y68157D01*
X44108Y68620D01*
X44109Y68621D01*
X44110Y68621D01*
X52896Y73912D01*
X93465Y97024D01*
X120500D01*
X121027Y97128D01*
X121171Y97225D01*
X121490Y96836D01*
X114527Y89873D01*
X114228Y89427D01*
X114124Y88900D01*
Y85085D01*
X113624Y84806D01*
X96577Y95296D01*
X84776Y88483D01*
X73265Y45519D01*
X73192Y45427D01*
X62927Y39505D01*
X62757Y39578D01*
X55866Y51510D01*
X55853Y51625D01*
X62243Y75473D01*
X35284Y59907D01*
X35168Y59893D01*
X33671Y60295D01*
X33687Y60808D01*
X33876Y60845D01*
X34702Y61398D01*
X35255Y62225D01*
X35423Y63069D01*
X38447Y64815D01*
X37187Y66998D01*
X37042Y67351D01*
X36902Y67492D01*
X35675Y69616D01*
X35651Y69602D01*
X34788Y71097D01*
X34652Y71435D01*
X34505Y71586D01*
X33275Y73716D01*
X33251Y73702D01*
X32405Y75168D01*
X32326Y75414D01*
X32128Y75647D01*
X30875Y77816D01*
X27439Y75832D01*
X27610Y75535D01*
X27477Y75053D01*
X26810Y74683D01*
X26692Y74583D01*
X26555Y74515D01*
X25808Y73939D01*
X25312Y74187D01*
X25169Y74905D01*
X26742Y80554D01*
X48208Y93028D01*
X56992Y97918D01*
X56994Y97920D01*
X56995Y97920D01*
X63626Y101628D01*
X64071Y101305D01*
D02*
G37*
G36*
X233161Y81804D02*
X238158Y63221D01*
X237836Y62649D01*
X219266Y57657D01*
X219228Y57674D01*
X192621Y73029D01*
X192598Y73620D01*
X193613Y74320D01*
X203063Y69441D01*
X203245Y68524D01*
X203798Y67698D01*
X204625Y67145D01*
X205600Y66951D01*
X206575Y67145D01*
X207402Y67698D01*
X207955Y68524D01*
X208149Y69500D01*
X207955Y70476D01*
X207402Y71302D01*
X206575Y71855D01*
X205600Y72049D01*
X204935Y71917D01*
X194202Y77459D01*
X193986Y77521D01*
X193777Y77604D01*
X193701Y77603D01*
X193628Y77624D01*
X193405Y77599D01*
X193180Y77596D01*
X193110Y77566D01*
X193035Y77557D01*
X192839Y77448D01*
X192632Y77359D01*
X190026Y75563D01*
X189991Y75527D01*
X189947Y75504D01*
X189785Y75314D01*
X189610Y75135D01*
X189592Y75088D01*
X189559Y75051D01*
X188023Y72308D01*
X185387Y71206D01*
X185057Y71581D01*
X186617Y74284D01*
X185630Y74854D01*
X185698Y75053D01*
X185793Y75268D01*
X185794Y75333D01*
X185816Y75396D01*
X185801Y75630D01*
X185806Y75864D01*
X185468Y77795D01*
X186847Y80185D01*
X185439Y80997D01*
X185310Y81480D01*
X187871Y85916D01*
X188121Y86349D01*
X188180Y86571D01*
X190700D01*
X191285Y86687D01*
X191708Y86970D01*
X192525Y86498D01*
X193106Y87503D01*
X193589Y87632D01*
X194712Y86980D01*
X194543Y86687D01*
X199343Y83915D01*
X200209Y85416D01*
X200675Y85234D01*
X199756Y81099D01*
X199756Y81099D01*
X199745Y80573D01*
X199744Y80562D01*
Y80562D01*
X199939Y80061D01*
X201042Y78327D01*
X201043Y78327D01*
X201043Y78326D01*
X201233Y78127D01*
X201413Y77939D01*
X201414Y77939D01*
X201414Y77938D01*
X201488Y77906D01*
X202072Y77539D01*
X201339Y76268D01*
X204775Y74284D01*
X207547Y79085D01*
X207547Y79085D01*
X207526Y79164D01*
X209847Y83185D01*
X209847Y83185D01*
X209844Y83196D01*
X212147Y87185D01*
X208710Y89169D01*
X208521Y88841D01*
X208025Y88905D01*
X207933Y89244D01*
X206084Y96852D01*
X206519Y97178D01*
X233161Y81804D01*
D02*
G37*
G36*
X130408Y89538D02*
X130358Y89406D01*
X130357Y89403D01*
X130356Y89399D01*
X130316Y89011D01*
X130275Y88621D01*
X130276Y88617D01*
X130275Y88614D01*
X130530Y79716D01*
X130032Y79614D01*
X124528D01*
Y74268D01*
X125037D01*
X125244Y73768D01*
X124614Y73137D01*
X124031Y73261D01*
X123602Y73902D01*
X123329Y74085D01*
Y83166D01*
X129980Y89817D01*
X130408Y89538D01*
D02*
G37*
G36*
X192361Y72770D02*
X198638Y49368D01*
X198605Y49291D01*
X191700Y37318D01*
X191585Y37270D01*
X181240Y43224D01*
X173662Y71480D01*
X173729Y71560D01*
X173869Y71625D01*
X174400Y71615D01*
X180066Y68018D01*
X181552Y67027D01*
X181692Y66969D01*
X181819Y66885D01*
X181965Y66857D01*
X182103Y66800D01*
X182255Y66800D01*
X182405Y66771D01*
X182551Y66800D01*
X182700Y66800D01*
X182841Y66859D01*
X182990Y66889D01*
X189690Y69689D01*
X189862Y69805D01*
X190047Y69899D01*
X190107Y69970D01*
X190185Y70022D01*
X190300Y70195D01*
X190434Y70353D01*
X191825Y72836D01*
X192361Y72770D01*
D02*
G37*
G36*
X114124Y70324D02*
Y69270D01*
X95127Y50273D01*
X94828Y49827D01*
X94731Y49337D01*
X93628D01*
Y45368D01*
X109572D01*
Y49337D01*
X108376D01*
Y52430D01*
X112454Y56507D01*
X112916Y56316D01*
Y52200D01*
X113028Y51634D01*
Y48869D01*
X118572D01*
Y48968D01*
X120908D01*
X122216Y47661D01*
X122216Y47653D01*
Y46575D01*
X121946Y46171D01*
X121776Y45320D01*
Y41344D01*
X121276Y41192D01*
X121202Y41302D01*
X120376Y41855D01*
X119400Y42049D01*
X119379Y42045D01*
X118838Y42585D01*
X118572Y42963D01*
X118572D01*
X118572Y42963D01*
Y46931D01*
X113028D01*
Y45349D01*
X112587Y45113D01*
X112375Y45255D01*
X111400Y45449D01*
X110424Y45255D01*
X109598Y44702D01*
X109045Y43876D01*
X108957Y43431D01*
X96676D01*
X96400Y43486D01*
X96124Y43431D01*
X93628D01*
Y39463D01*
X93648D01*
X93923Y38963D01*
X93751Y38100D01*
X93945Y37124D01*
X94498Y36298D01*
X95324Y35745D01*
X96300Y35551D01*
X97276Y35745D01*
X98102Y36298D01*
X98655Y37124D01*
X98849Y38100D01*
X98677Y38963D01*
X98877Y39326D01*
X98997Y39463D01*
X101421D01*
X103566Y37319D01*
X104062Y36987D01*
X104647Y36871D01*
X109415D01*
X109598Y36598D01*
X110424Y36045D01*
X111400Y35851D01*
X112375Y36045D01*
X113202Y36598D01*
X113755Y37424D01*
X113949Y38400D01*
X113755Y39375D01*
X113202Y40202D01*
X112907Y40400D01*
Y40900D01*
X113202Y41098D01*
X113755Y41925D01*
X113784Y42068D01*
X114314Y42174D01*
X114538Y41838D01*
X116377Y40000D01*
Y39500D01*
X115897Y39021D01*
X115511Y38442D01*
X115375Y37759D01*
Y33072D01*
X114486D01*
Y27528D01*
X119832D01*
Y27528D01*
X119968D01*
Y27528D01*
X121050D01*
Y26495D01*
X121047D01*
Y19180D01*
X121050D01*
Y18665D01*
X121186Y17982D01*
X121573Y17404D01*
X122438Y16538D01*
X123017Y16151D01*
X123700Y16016D01*
X123700Y16016D01*
X134700D01*
X135383Y16151D01*
X135962Y16538D01*
X140362Y20938D01*
X140749Y21517D01*
X140884Y22200D01*
X140884Y22200D01*
Y25954D01*
X141274Y26369D01*
X141518Y26320D01*
Y23983D01*
X141634Y23397D01*
X141966Y22901D01*
X142106Y22761D01*
X141590Y21517D01*
X141401Y20081D01*
X141590Y18645D01*
X142145Y17307D01*
X142914Y16304D01*
Y11124D01*
X112991D01*
Y16304D01*
X113761Y17307D01*
X114315Y18645D01*
X114504Y20081D01*
X114315Y21517D01*
X113761Y22855D01*
X112879Y24004D01*
X111730Y24885D01*
X110392Y25440D01*
X108957Y25629D01*
X107521Y25440D01*
X106183Y24885D01*
X105034Y24004D01*
X104653Y23507D01*
X104179Y23667D01*
Y35067D01*
X96573Y27443D01*
X96457Y27408D01*
X83000Y27395D01*
X82543Y27840D01*
X82542Y39424D01*
X113624Y70530D01*
X114124Y70324D01*
D02*
G37*
G36*
X162935Y49890D02*
X162646Y49472D01*
X158768D01*
Y43928D01*
Y39228D01*
Y34428D01*
X160451D01*
X160687Y33987D01*
X160545Y33775D01*
X160351Y32800D01*
X160545Y31824D01*
X161098Y30998D01*
X161925Y30445D01*
X162900Y30251D01*
X163875Y30445D01*
X164702Y30998D01*
X165255Y31824D01*
X165449Y32800D01*
X165255Y33775D01*
X164702Y34602D01*
X164684Y34615D01*
Y35053D01*
X164684Y35053D01*
X164549Y35736D01*
X164162Y36314D01*
X164162Y36314D01*
X162737Y37739D01*
Y38533D01*
X163237Y38740D01*
X166188Y35788D01*
X166151Y35600D01*
X166345Y34624D01*
X166898Y33798D01*
X167725Y33245D01*
X168700Y33051D01*
X169676Y33245D01*
X170502Y33798D01*
X171055Y34624D01*
X171249Y35600D01*
X171055Y36575D01*
X170502Y37402D01*
X170207Y37600D01*
Y38100D01*
X170502Y38298D01*
X171055Y39125D01*
X171249Y40100D01*
X171055Y41075D01*
X171460Y41370D01*
X173344Y39486D01*
X173380Y39370D01*
X173392Y27840D01*
X172955Y27407D01*
X159400Y27400D01*
X151726Y35067D01*
X151722Y23673D01*
X151249Y23512D01*
X150872Y24004D01*
X149723Y24885D01*
X148385Y25440D01*
X146949Y25629D01*
X145513Y25440D01*
X144992Y25224D01*
X144577Y25502D01*
Y26528D01*
X145031D01*
Y32072D01*
X144509D01*
Y38557D01*
X142526D01*
X141039Y40045D01*
Y40115D01*
X141054Y40138D01*
X141128Y40508D01*
X141525Y40845D01*
X142500Y40651D01*
X143475Y40845D01*
X144302Y41398D01*
X144855Y42224D01*
X145049Y43200D01*
X144855Y44175D01*
X144302Y45002D01*
X143475Y45555D01*
X142500Y45749D01*
X141525Y45555D01*
X141146Y45712D01*
X141054Y46171D01*
X140573Y46892D01*
X139851Y47374D01*
X139826Y47379D01*
X139801Y47481D01*
X139845Y47586D01*
X140189Y47989D01*
X140975Y48145D01*
X141802Y48698D01*
X142355Y49525D01*
X142549Y50500D01*
X143043Y50490D01*
Y50491D01*
X150271D01*
Y42900D01*
X150387Y42315D01*
X150719Y41819D01*
X151619Y40919D01*
X152115Y40587D01*
X152700Y40471D01*
X152863D01*
Y39228D01*
X156832D01*
Y43928D01*
Y49472D01*
X156377D01*
Y55737D01*
X156654Y55911D01*
X156866Y55955D01*
X162935Y49890D01*
D02*
G37*
G36*
X127263Y39663D02*
X127351Y39217D01*
X127738Y38638D01*
X128663Y37714D01*
Y32428D01*
X132632D01*
Y35891D01*
X133132Y36098D01*
X135291Y33938D01*
X135870Y33551D01*
X136553Y33416D01*
X136953Y33495D01*
X137383Y33095D01*
X137316Y32754D01*
Y22939D01*
X133961Y19584D01*
X132299D01*
Y26495D01*
X124619D01*
Y27528D01*
X125314D01*
Y33072D01*
X123432D01*
Y35461D01*
X125262Y37291D01*
X125262Y37291D01*
X125494Y37638D01*
X125648Y37870D01*
X125784Y38553D01*
Y39733D01*
X125962Y40000D01*
X127038D01*
X127263Y39663D01*
D02*
G37*
%LPC*%
G36*
X227700Y194549D02*
X226725Y194355D01*
X225898Y193802D01*
X225345Y192975D01*
X225151Y192000D01*
X225345Y191024D01*
X225402Y190940D01*
X223233Y180338D01*
X223146Y180310D01*
X222968Y180453D01*
X222773Y180716D01*
X222949Y181600D01*
X222755Y182576D01*
X222202Y183402D01*
X221375Y183955D01*
X220400Y184149D01*
X219425Y183955D01*
X218717Y183482D01*
X218119Y183518D01*
X218090Y183569D01*
X217903Y183461D01*
X217110Y184835D01*
X217012Y185116D01*
X214904Y188674D01*
X214949Y188900D01*
X214755Y189875D01*
X214202Y190702D01*
X213375Y191255D01*
X212400Y191449D01*
X211424Y191255D01*
X210598Y190702D01*
X210045Y189875D01*
X209851Y188900D01*
X210045Y187925D01*
X210598Y187098D01*
X211424Y186545D01*
X211425Y186545D01*
X213503Y183037D01*
X213680Y182839D01*
X214925Y180684D01*
X215111Y180791D01*
X215891Y179440D01*
X215962Y179209D01*
X216169Y178958D01*
X216992Y177532D01*
X216953Y177385D01*
X216953Y177385D01*
X218199Y175226D01*
X218286Y174965D01*
X218476Y174747D01*
X219725Y172584D01*
X223161Y174568D01*
X222977Y174888D01*
X223107Y175370D01*
X226011Y177029D01*
X226062Y177073D01*
X226124Y177098D01*
X226361Y177333D01*
X226612Y177551D01*
X226642Y177611D01*
X226689Y177658D01*
X226818Y177965D01*
X226967Y178263D01*
X226972Y178330D01*
X226998Y178391D01*
X229398Y190128D01*
X229502Y190198D01*
X230055Y191024D01*
X230249Y192000D01*
X230055Y192975D01*
X229502Y193802D01*
X228676Y194355D01*
X227700Y194549D01*
D02*
G37*
G36*
X195248Y177548D02*
X186752D01*
Y169052D01*
X195248D01*
Y172679D01*
X202410Y172714D01*
X202679Y172768D01*
X205172D01*
Y176737D01*
X202673D01*
X202390Y176792D01*
X195602Y176759D01*
X195248Y177112D01*
Y177548D01*
D02*
G37*
G36*
X93000Y131949D02*
X92024Y131755D01*
X91198Y131202D01*
X90645Y130376D01*
X90451Y129400D01*
X90645Y128425D01*
X91198Y127598D01*
X91608Y127323D01*
Y125100D01*
X91663Y124824D01*
Y122328D01*
X95631D01*
Y124824D01*
X95686Y125100D01*
Y128753D01*
X95686Y128753D01*
X95531Y129533D01*
X95519Y129552D01*
X95355Y130376D01*
X94802Y131202D01*
X93976Y131755D01*
X93000Y131949D01*
D02*
G37*
G36*
X213825Y86216D02*
X212572Y84047D01*
X212375Y83814D01*
X212296Y83568D01*
X211053Y81415D01*
X211053Y81415D01*
X211056Y81404D01*
X210275Y80052D01*
X210085Y79832D01*
X209999Y79573D01*
X208753Y77415D01*
X208753Y77415D01*
X208774Y77336D01*
X207967Y75939D01*
X207754Y75676D01*
X207688Y75455D01*
X206453Y73315D01*
X209890Y71331D01*
X210293Y72029D01*
X215807Y69119D01*
X217466Y68142D01*
X217773Y68035D01*
X218072Y67906D01*
X218147Y67905D01*
X218217Y67880D01*
X218542Y67899D01*
X218867Y67894D01*
X230534Y70032D01*
X230534D01*
X231274Y70325D01*
X231663Y70703D01*
X231875Y70745D01*
X232702Y71298D01*
X233255Y72124D01*
X233449Y73100D01*
X233255Y74076D01*
X232702Y74902D01*
X231875Y75455D01*
X230900Y75649D01*
X229925Y75455D01*
X229098Y74902D01*
X228545Y74076D01*
X228491Y73804D01*
X223672Y72921D01*
X223397Y73339D01*
X223455Y73425D01*
X223649Y74400D01*
X223455Y75375D01*
X222902Y76202D01*
X222076Y76755D01*
X221100Y76949D01*
X220134Y76757D01*
X219174Y77006D01*
X216791Y78362D01*
X216880Y78887D01*
X217675Y79045D01*
X218502Y79598D01*
X219055Y80424D01*
X219249Y81400D01*
X219055Y82376D01*
X218502Y83202D01*
X217675Y83755D01*
X217458Y83798D01*
X217261Y84232D01*
Y84232D01*
X213825Y86216D01*
D02*
G37*
%LPD*%
D12*
X192501Y89901D02*
Y90621D01*
X190700Y88100D02*
X192501Y89901D01*
X186900Y88100D02*
X190700D01*
X185800Y89200D02*
X186900Y88100D01*
X183500Y89200D02*
X185800D01*
X181299Y86999D02*
X183500Y89200D01*
X181299Y86179D02*
Y86999D01*
X141900Y110600D02*
Y111000D01*
X133200Y101900D02*
X141900Y110600D01*
X133200Y95200D02*
Y101900D01*
X121800Y83800D02*
X133200Y95200D01*
X121800Y72100D02*
Y83800D01*
X98932Y120300D02*
X99553Y120921D01*
Y125100D01*
X116068Y147868D02*
X116100Y147900D01*
X116068Y144500D02*
Y147868D01*
X134000Y62446D02*
Y65900D01*
X135700Y67600D01*
X151800Y42900D02*
X152700Y42000D01*
X154847D01*
X129000Y62446D02*
Y64600D01*
X154847Y46700D02*
Y55853D01*
X135700Y67600D02*
X140200D01*
X151800Y56000D01*
Y42900D02*
Y56000D01*
X129000Y64600D02*
X133900Y69500D01*
X141200D01*
X154847Y55853D01*
X101600Y41447D02*
X104647Y38400D01*
X111400D01*
X109947Y41447D02*
X111400Y42900D01*
X106800Y41447D02*
X109947D01*
X163100Y94600D02*
X163500Y91700D01*
X170100Y87800D01*
X171300Y87100D01*
X172100Y83700D01*
X163100Y94600D02*
X165560Y98777D01*
X168235Y103318D01*
X172100Y83700D02*
X175220Y72906D01*
X166800Y94100D02*
X168235Y103318D01*
X166800Y94100D02*
X174700Y89600D01*
Y85400D02*
Y89600D01*
Y85400D02*
X175343Y83576D01*
X176300Y79300D02*
X178484Y75779D01*
X175343Y83576D02*
X176300Y79300D01*
X180457Y80624D02*
X183743Y78776D01*
X182800Y81400D02*
X184538Y84308D01*
X180457Y80624D02*
X182800Y81400D01*
X182916Y73220D02*
X184300Y75600D01*
X183743Y78776D02*
X184300Y75600D01*
X175220Y72906D02*
X180900Y69300D01*
X182400Y68300D01*
X189100Y71100D01*
X190894Y74303D01*
X193500Y76100D01*
X205700Y69800D01*
X143047Y23983D02*
Y29300D01*
Y23983D02*
X146949Y20081D01*
D16*
X123300Y213200D02*
X124200D01*
X47657Y179024D02*
X54300Y164700D01*
X91800Y142100D01*
X43057Y171224D02*
X46200Y169400D01*
X49600Y163400D01*
X66438Y153358D01*
X45357Y175124D02*
X48000Y173300D01*
X52100Y164100D01*
X91000Y140500D01*
X102100Y129400D01*
X66438Y153358D02*
X90000Y139300D01*
X128200Y212600D02*
X138400Y202400D01*
Y167800D02*
Y202400D01*
Y167800D02*
X145300Y160900D01*
X154413Y134813D02*
X158938Y139399D01*
X148340Y128740D02*
X154413Y134813D01*
X158938Y139399D02*
X183100Y154500D01*
X185500D01*
X149365Y127165D02*
X159900Y137700D01*
X184000Y152900D01*
X185900D01*
X154414Y129914D02*
X161200Y136300D01*
X184800Y151100D01*
X186700D01*
X139862Y127165D02*
X149365D01*
X84600Y104700D02*
X96300D01*
X207600Y175100D02*
X209248Y172202D01*
X208200Y180000D02*
X210143Y181124D01*
X207600Y175100D02*
X208200Y180000D01*
X211000Y176200D02*
X212643Y177224D01*
X210300Y174000D02*
X211000Y176200D01*
X207100Y87000D02*
X209043Y85776D01*
X206900Y87800D02*
X207100Y87000D01*
X206600Y88900D02*
X206900Y87800D01*
X203100Y103300D02*
X206600Y88900D01*
X191000Y110000D02*
X202600Y103600D01*
X201100Y80800D02*
X202838Y88621D01*
X200056Y100985D02*
X202838Y88621D01*
X191087Y106264D02*
X200056Y100985D01*
X204300Y83400D02*
X206743Y81776D01*
X203615Y84718D02*
X204300Y83400D01*
X203615Y84718D02*
X204500Y88900D01*
X201100Y80800D02*
X202203Y79066D01*
X201400Y101900D02*
X204500Y88900D01*
X201000Y102100D02*
X201400Y101900D01*
X191100Y107900D02*
X201000Y102100D01*
X202203Y79066D02*
X202207Y79080D01*
X204443Y77676D01*
X183803Y104848D02*
X191087Y106264D01*
X183100Y105300D02*
X183803Y104848D01*
X183507Y106877D02*
X184518Y106426D01*
X191100Y107900D01*
X183041Y105286D02*
X183100Y105300D01*
X168229Y114332D02*
X183041Y105286D01*
X169469Y115240D02*
X183507Y106877D01*
X184200Y108300D02*
X191000Y110000D01*
X170600Y116300D02*
X184200Y108300D01*
X119100Y86300D02*
X130315Y97515D01*
Y116043D01*
X117300Y66600D02*
Y87900D01*
X128740Y99340D01*
Y116043D01*
X115500Y68700D02*
Y88900D01*
X127165Y100565D01*
Y116043D01*
X136614Y111018D02*
X136632Y111000D01*
X136614Y111018D02*
Y116043D01*
X93100Y98400D02*
X120500D01*
X125591Y103491D01*
Y116043D01*
X91700Y100000D02*
X119000D01*
X124016Y105016D01*
Y116043D01*
X90900Y101700D02*
X118100D01*
X122441Y106041D01*
Y116043D01*
X114016Y124016D02*
X116043D01*
X111500Y121500D02*
X114016Y124016D01*
X114541Y122441D02*
X116043D01*
X111300Y119200D02*
X114541Y122441D01*
X113300Y128000D02*
X114040Y128740D01*
X116043D01*
X111300Y130900D02*
X112290Y131890D01*
X112000Y129400D02*
X112915Y130315D01*
X116043D01*
X112290Y131890D02*
X116043D01*
X119729Y108900D02*
X120866Y110037D01*
Y116043D01*
X111332Y115600D02*
X111776Y116043D01*
X119291D01*
X108532Y133500D02*
X108568Y133465D01*
X116043D01*
X109800Y137600D02*
X112361Y135039D01*
X116043D01*
X107826Y148962D02*
X111200Y145588D01*
Y141457D02*
Y145588D01*
Y141457D02*
X116043Y136614D01*
X143800Y148100D02*
Y160000D01*
X139800Y144100D02*
X143800Y148100D01*
X135500Y144100D02*
X139800D01*
X136700Y167100D02*
X143800Y160000D01*
X145300Y147400D02*
Y160900D01*
X140300Y142400D02*
X145300Y147400D01*
X140100Y168800D02*
X147000Y161900D01*
Y145900D02*
Y161900D01*
X140962Y139862D02*
X147000Y145900D01*
X128740Y143311D02*
X132329Y146900D01*
X128740Y139862D02*
Y143311D01*
X136768Y147768D02*
Y148800D01*
X130315Y141315D02*
X136768Y147768D01*
X136000Y142400D02*
X140300D01*
X133465Y142065D02*
X135500Y144100D01*
X133465Y139862D02*
Y142065D01*
X135039Y141439D02*
X136000Y142400D01*
X135039Y139862D02*
Y141439D01*
X136614Y139862D02*
X140962D01*
X130315D02*
Y141315D01*
X122441Y143059D02*
X124016Y141484D01*
Y139862D02*
Y141484D01*
X119532Y144500D02*
X119932Y144100D01*
X121400D01*
X122441Y143059D01*
Y139862D02*
Y143059D01*
X119100Y142100D02*
X120800D01*
X116900D02*
X119100D01*
X119291Y141909D01*
Y139862D02*
Y141909D01*
X116068Y142932D02*
Y144500D01*
Y142932D02*
X116900Y142100D01*
X120800D02*
X120866Y142034D01*
Y139862D02*
Y142034D01*
X151039Y135039D02*
X164612Y148612D01*
X139862Y124016D02*
X163884D01*
X139862Y122441D02*
X163159D01*
X139862Y120866D02*
X162534D01*
X96100Y47200D02*
Y49300D01*
X115500Y68700D01*
X101700Y47400D02*
Y51000D01*
X117300Y66600D01*
X107000Y47100D02*
Y53000D01*
X119100Y65100D01*
Y86300D01*
X80201Y100301D02*
X84600Y104700D01*
X77911Y100301D02*
X80201D01*
X50200Y78600D02*
X90900Y101700D01*
X51200Y76500D02*
X91700Y100000D01*
X52200Y75100D02*
X93100Y98400D01*
X43400Y69800D02*
X52200Y75100D01*
X40457Y69176D02*
X41400Y68600D01*
X43400Y69800D01*
X36900Y78000D02*
X38500Y77700D01*
X35657Y77376D02*
X36900Y78000D01*
X43500Y74800D02*
X50200Y78600D01*
X38500Y77700D02*
X43500Y74800D01*
X38057Y73276D02*
X39672Y74120D01*
X44846Y72598D01*
X51200Y76500D01*
X139862Y135039D02*
X151039D01*
X139862Y136614D02*
X145014D01*
X160412Y152012D01*
X136700Y167100D02*
Y200700D01*
X124200Y213200D02*
X136700Y200700D01*
X123300Y213100D02*
Y213200D01*
X128200Y212600D02*
Y213500D01*
X133700Y211000D02*
Y213447D01*
Y211000D02*
X140100Y204600D01*
Y168800D02*
Y204600D01*
X99900Y108300D02*
Y111600D01*
X96300Y104700D02*
X99900Y108300D01*
X103900Y119200D02*
X111300D01*
X98932Y120300D02*
X101500D01*
X102700Y121500D01*
X111500D01*
X99900Y111600D02*
X101600Y113300D01*
Y116900D01*
X103900Y119200D01*
X91800Y142100D02*
X103000Y130900D01*
X111300D01*
X102100Y129400D02*
X112000D01*
X90000Y139300D02*
X101300Y128000D01*
X113300D01*
X97175Y144725D02*
Y147837D01*
Y144725D02*
X104300Y137600D01*
X109800D01*
X139862Y128740D02*
X148340D01*
X139862Y125591D02*
X150091D01*
X154414Y129914D01*
X185500Y154500D02*
X195800Y160800D01*
X185900Y152900D02*
X203600Y163600D01*
X210300Y174000D02*
X210946Y172800D01*
X186700Y151100D02*
X206100Y163100D01*
X209500Y163700D01*
X214943Y173024D01*
X203600Y163600D02*
X206694Y165428D01*
X209017Y165728D01*
X210946Y172800D01*
X195800Y160800D02*
X206108Y167075D01*
X207836Y167401D01*
X209248Y172202D01*
X169950Y117950D02*
X170600Y116300D01*
X168856Y116744D02*
X169469Y115240D01*
X167600Y115800D02*
X168229Y114332D01*
X163884Y124016D02*
X169950Y117950D01*
X163159Y122441D02*
X168856Y116744D01*
X162534Y120866D02*
X167600Y115800D01*
D17*
X211857Y78824D02*
D03*
X206743Y81776D02*
D03*
X214157Y82824D02*
D03*
X209043Y85776D02*
D03*
X209557Y74724D02*
D03*
X204443Y77676D02*
D03*
X175343Y83576D02*
D03*
X180457Y80624D02*
D03*
X183743Y78776D02*
D03*
X188857Y75824D02*
D03*
X42543Y181976D02*
D03*
X47657Y179024D02*
D03*
X40243Y178076D02*
D03*
X45357Y175124D02*
D03*
X37943Y174176D02*
D03*
X43057Y171224D02*
D03*
D18*
X143047Y29300D02*
D03*
X148953D02*
D03*
X130647Y35200D02*
D03*
X136553D02*
D03*
X121447D02*
D03*
X127353D02*
D03*
X160753Y46700D02*
D03*
X154847D02*
D03*
X160753Y42000D02*
D03*
X154847D02*
D03*
X160753Y37200D02*
D03*
X154847D02*
D03*
X93647Y125100D02*
D03*
X99553D02*
D03*
X103047D02*
D03*
X108953D02*
D03*
D19*
X146700Y53754D02*
D03*
Y48046D02*
D03*
X162500Y107846D02*
D03*
X162500Y113554D02*
D03*
X155100Y107846D02*
D03*
Y113554D02*
D03*
X147900Y107846D02*
D03*
Y113554D02*
D03*
D20*
X127300Y82059D02*
D03*
Y76941D02*
D03*
D21*
X115800Y44947D02*
D03*
Y50853D02*
D03*
X96400Y41447D02*
D03*
Y47353D02*
D03*
X106800Y41447D02*
D03*
Y47353D02*
D03*
X101600Y41447D02*
D03*
Y47353D02*
D03*
X202400Y174753D02*
D03*
Y168847D02*
D03*
X122900Y219353D02*
D03*
Y213447D02*
D03*
X128300Y219353D02*
D03*
Y213447D02*
D03*
X133700Y219353D02*
D03*
Y213447D02*
D03*
D22*
X141246Y34900D02*
D03*
X146954D02*
D03*
D23*
X139000Y62446D02*
D03*
X134000D02*
D03*
X129000D02*
D03*
X124000D02*
D03*
X139000Y43154D02*
D03*
X134000D02*
D03*
X129000D02*
D03*
X124000D02*
D03*
D24*
X131500Y52800D02*
D03*
D25*
X91334Y152800D02*
D03*
X93066Y155800D02*
D03*
D26*
X109100Y155734D02*
D03*
X106100Y157466D02*
D03*
D27*
X107826Y148962D02*
D03*
X100325Y153293D02*
D03*
X97175Y147837D02*
D03*
X104676Y143507D02*
D03*
D28*
X136768Y148800D02*
D03*
X140232D02*
D03*
X116068Y144500D02*
D03*
X119532D02*
D03*
X128968Y160900D02*
D03*
X132432D02*
D03*
X107468Y105800D02*
D03*
X110932D02*
D03*
X124068Y169400D02*
D03*
X127532D02*
D03*
X111332Y115600D02*
D03*
X107868D02*
D03*
X108532Y133500D02*
D03*
X105068D02*
D03*
X98932Y120300D02*
D03*
X95468D02*
D03*
X136632Y111000D02*
D03*
X133168D02*
D03*
D29*
X137000Y153068D02*
D03*
Y156532D02*
D03*
X124000Y152668D02*
D03*
Y156132D02*
D03*
D30*
X182916Y73220D02*
D03*
X178484Y75779D02*
D03*
X189284Y101180D02*
D03*
X193716Y98620D02*
D03*
D31*
X198280Y87616D02*
D03*
X195721Y83184D02*
D03*
X74321Y160484D02*
D03*
X76880Y164916D02*
D03*
D32*
X71828Y183227D02*
D03*
X76772Y180373D02*
D03*
D33*
X122835Y22837D02*
D03*
X125394D02*
D03*
X127953D02*
D03*
X130512D02*
D03*
X133071D02*
D03*
D34*
X124000Y164829D02*
D03*
Y160971D02*
D03*
D35*
X124055Y147638D02*
D03*
X127913D02*
D03*
X128471Y153100D02*
D03*
X132329D02*
D03*
X119729Y108900D02*
D03*
X115871D02*
D03*
X111229Y110600D02*
D03*
X107371D02*
D03*
D36*
X177100Y98200D02*
D03*
X168235Y103318D02*
D03*
D37*
X45645Y82100D02*
D03*
X78987Y101350D02*
D03*
D38*
X187777Y82438D02*
D03*
X184538Y84308D02*
D03*
X181299Y86179D02*
D03*
X186023Y94362D02*
D03*
X189262Y92492D02*
D03*
X192501Y90621D02*
D03*
D39*
X60799Y165879D02*
D03*
X64038Y164008D02*
D03*
X67277Y162138D02*
D03*
X72001Y170321D02*
D03*
X65523Y174062D02*
D03*
D40*
X168488Y152388D02*
D03*
X164312Y148212D02*
D03*
X164588Y156188D02*
D03*
X160412Y152012D02*
D03*
D41*
X122641Y30300D02*
D03*
X127759D02*
D03*
X117159D02*
D03*
X112041D02*
D03*
D42*
X35343Y66224D02*
D03*
X40457Y69176D02*
D03*
X30543Y74424D02*
D03*
X35657Y77376D02*
D03*
X32943Y70324D02*
D03*
X38057Y73276D02*
D03*
X220057Y175976D02*
D03*
X214943Y173024D02*
D03*
X215257Y184076D02*
D03*
X210143Y181124D02*
D03*
X217757Y180176D02*
D03*
X212643Y177224D02*
D03*
D43*
X49734Y106600D02*
D03*
X51466Y103600D02*
D03*
D44*
X55876Y104543D02*
D03*
X52924Y109657D02*
D03*
D45*
X136614Y116043D02*
D03*
X135039D02*
D03*
X131890D02*
D03*
X130315D02*
D03*
X133465D02*
D03*
X124016D02*
D03*
X122441D02*
D03*
X128740D02*
D03*
X125591D02*
D03*
X127165D02*
D03*
X119291D02*
D03*
X120866D02*
D03*
X135039Y139862D02*
D03*
X136614D02*
D03*
X131890D02*
D03*
X133465D02*
D03*
X130315D02*
D03*
X127165D02*
D03*
X128740D02*
D03*
X124016D02*
D03*
X125591D02*
D03*
X120866D02*
D03*
X122441D02*
D03*
X119291D02*
D03*
D46*
X139862Y119291D02*
D03*
Y124016D02*
D03*
Y120866D02*
D03*
Y122441D02*
D03*
X116043Y119291D02*
D03*
Y120866D02*
D03*
Y125591D02*
D03*
Y122441D02*
D03*
Y124016D02*
D03*
X139862Y127165D02*
D03*
Y125591D02*
D03*
Y131890D02*
D03*
Y128740D02*
D03*
Y130315D02*
D03*
Y133465D02*
D03*
Y135039D02*
D03*
Y136614D02*
D03*
X116043Y130315D02*
D03*
Y127165D02*
D03*
Y128740D02*
D03*
Y135039D02*
D03*
Y131890D02*
D03*
Y133465D02*
D03*
Y136614D02*
D03*
D47*
X127953Y127953D02*
D03*
D81*
X191000Y173300D02*
D03*
D82*
Y163300D02*
D03*
X181000Y173300D02*
D03*
Y163300D02*
D03*
D85*
X26055Y174145D02*
X46922Y161964D01*
X21600Y189900D02*
X26055Y174145D01*
X46922Y161964D02*
X71600Y147477D01*
X85558Y134333D02*
Y139012D01*
X71600Y147477D02*
X85558Y139012D01*
X119000Y152000D02*
X119532Y151468D01*
Y144500D02*
Y151468D01*
X167908Y137204D02*
X170400Y139100D01*
X184680Y147823D01*
X188900Y148200D01*
X163500Y133300D02*
X167908Y137204D01*
X184700Y156700D02*
X189300Y159700D01*
X172900Y156500D02*
X184700Y156700D01*
X168488Y152388D02*
X172900Y156500D01*
X212400Y188900D02*
X215257Y184076D01*
X225000Y178800D02*
X227700Y192000D01*
X220057Y175976D02*
X225000Y178800D01*
X217757Y180176D02*
X220400Y181600D01*
X172300Y163300D02*
X181000Y163300D01*
X170000Y161300D02*
X172300Y163300D01*
X164588Y156188D02*
X170000Y161300D01*
X189300Y159700D02*
X191000Y163300D01*
Y173300D02*
X191500Y174700D01*
X202400Y174753D01*
X199900Y165800D02*
X202400Y168847D01*
X191000Y163300D02*
X199900Y165800D01*
X230166Y72037D02*
X230900Y73100D01*
X218500Y69900D02*
X230166Y72037D01*
X216800Y70900D02*
X218500Y69900D01*
X209557Y74724D02*
X216800Y70900D01*
X214157Y82824D02*
X216705Y81409D01*
X218400Y75100D02*
X221100Y74400D01*
X211857Y78824D02*
X218400Y75100D01*
X192501Y90621D02*
X198128Y87355D01*
X185100Y94600D02*
X186023Y94362D01*
X178200Y87600D02*
X181299Y86179D01*
X111332Y115600D02*
X113500D01*
X115100Y114000D01*
X72001Y174500D02*
Y176499D01*
Y170321D02*
Y174500D01*
X72101Y174600D01*
X75800D01*
X72666Y162138D02*
X74321Y160484D01*
X67277Y162138D02*
X72666D01*
X68501Y179900D02*
X71828Y183227D01*
X65523Y176922D02*
X68501Y179900D01*
X68600D01*
X72001Y176499D01*
X65523Y174062D02*
Y176922D01*
X99553Y125100D02*
X103047D01*
X111229Y110600D02*
X115971D01*
X107371D02*
X107468Y110503D01*
Y105800D02*
Y110503D01*
X107271Y110500D02*
X107371Y110600D01*
X103600Y110500D02*
X107271D01*
X109100Y150236D02*
Y155734D01*
X107826Y148962D02*
X109100Y150236D01*
X96296Y147837D02*
X97175D01*
X91334Y152800D02*
X96296Y147837D01*
X124000Y164829D02*
X124068Y164897D01*
Y169400D01*
X132329Y146900D02*
Y153100D01*
X127913Y152542D02*
X128471Y153100D01*
X127913Y147638D02*
Y152542D01*
X128897Y160971D02*
X128968Y160900D01*
X124000Y160971D02*
X128897D01*
X124000Y156132D02*
Y160971D01*
Y152668D02*
X124055Y152613D01*
Y147638D02*
Y152613D01*
X139000Y39200D02*
Y43154D01*
Y39200D02*
X141246Y36954D01*
Y34900D02*
Y36954D01*
X142454Y43154D02*
X142500Y43200D01*
X139000Y43154D02*
X142454D01*
X139000Y62446D02*
X146700Y54746D01*
Y53754D02*
Y54746D01*
X96400Y38200D02*
Y41447D01*
X96300Y38100D02*
X96400Y38200D01*
X72400Y97600D02*
X78987Y101350D01*
X22800Y74000D02*
X25000Y81900D01*
X47200Y94800D01*
X56000Y99700D01*
X27800Y72900D02*
X30543Y74424D01*
X20800Y67500D02*
X27800Y72900D01*
X30600Y68800D02*
X32943Y70324D01*
X29800Y65700D02*
X30600Y68800D01*
X33800Y65200D02*
X35343Y66224D01*
X32900Y63200D02*
X33800Y65200D01*
X56000Y99700D02*
X83000Y114800D01*
X67566Y98872D02*
X72400Y97600D01*
X66500Y100700D02*
X67566Y98872D01*
X55634Y109800D02*
X58900Y111500D01*
X60500Y110900D01*
X61900Y108700D01*
X33300Y175500D02*
X35700Y175200D01*
X37943Y174176D01*
X34900Y180300D02*
X37300Y179700D01*
X40243Y178076D01*
X37400Y184600D02*
X42543Y181976D01*
X122900Y219353D02*
Y222300D01*
X123000Y222400D01*
X128300Y219353D02*
Y222400D01*
X133700Y219353D02*
Y222500D01*
X124068Y169400D02*
Y172368D01*
X124100Y172400D01*
X92100Y114800D02*
X94350Y112550D01*
X55766Y104440D02*
X57443Y101352D01*
X56000Y99700D02*
X57443Y101352D01*
X50166Y108114D02*
X53200Y109800D01*
X55634Y109800D01*
X49734Y106600D02*
X50166Y108114D01*
X93647Y125100D02*
Y128753D01*
X93000Y129400D02*
X93647Y128753D01*
X132329Y153100D02*
X137000Y153068D01*
X83000Y114800D02*
X92100D01*
X84894D02*
X85558Y134333D01*
X163500Y128200D02*
Y133300D01*
X188900Y148200D02*
X197392Y153760D01*
X165400Y99500D02*
X165560Y98777D01*
D86*
X147900Y107846D02*
X162500D01*
X184700Y100600D02*
X185280Y101180D01*
X189284D01*
X162500Y107846D02*
X167028Y103318D01*
X168235D01*
X145054Y107846D02*
X147900D01*
X177301Y98908D02*
X185100Y94600D01*
X140000Y50500D02*
Y53600D01*
X140100Y53700D01*
X140154Y53754D01*
X146700D01*
X138700Y111000D02*
X141900D01*
X124100Y172400D02*
Y187100D01*
X84700Y226500D02*
X124100Y187100D01*
X157000Y102800D02*
X161000D01*
X74321Y160484D02*
X78200Y158300D01*
X82300Y157000D01*
X135500Y91018D02*
X147282Y102800D01*
X157000D01*
X141900Y111000D02*
X145054Y107846D01*
D87*
X178200Y87600D02*
X179900Y90800D01*
X75800Y174600D02*
X79600Y172700D01*
X96600Y110300D02*
X96700D01*
X94350Y112550D02*
X96600Y110300D01*
X133300Y88700D02*
X135500Y91018D01*
X131000Y71600D02*
X133700Y74700D01*
X133300Y88700D02*
X133700Y74700D01*
X197439Y153688D02*
X199600Y151100D01*
X141900Y107500D02*
Y110600D01*
D88*
X117159Y30300D02*
X122641D01*
X122835Y30106D01*
Y22837D02*
Y30106D01*
X124000Y38553D02*
Y43154D01*
X130647Y35200D02*
Y38253D01*
X129000Y39900D02*
X130647Y38253D01*
X129000Y39900D02*
Y43154D01*
X134000Y37753D02*
Y43154D01*
Y37753D02*
X136553Y35200D01*
X160753Y46700D02*
X163000D01*
X168700Y41000D01*
Y40100D02*
Y41000D01*
X160753Y42000D02*
X162500D01*
X168700Y35800D01*
Y35600D02*
Y35800D01*
X160753Y37200D02*
X162900Y35053D01*
Y32800D02*
Y35053D01*
X114700Y57700D02*
X121200Y64200D01*
Y67200D01*
X127300Y73300D01*
Y76941D01*
X122835Y18665D02*
Y22837D01*
Y18665D02*
X123700Y17800D01*
X134700D01*
X139100Y22200D01*
Y32754D01*
X141246Y34900D01*
X117159Y30300D02*
Y37759D01*
X119000Y39600D01*
X124000Y61600D02*
Y62446D01*
X119400Y57000D02*
X124000Y61600D01*
Y43154D02*
Y48400D01*
X121647Y50753D02*
X124000Y48400D01*
X114700Y52200D02*
Y57700D01*
Y52200D02*
X116147Y50753D01*
X121647D01*
X115800Y43100D02*
X119400Y39500D01*
X115800Y43100D02*
Y44847D01*
X121600Y36153D02*
X124000Y38553D01*
X121600Y35800D02*
Y36153D01*
D89*
X127913Y147638D02*
X128000Y147551D01*
Y144700D02*
Y147551D01*
X127165Y143865D02*
X128000Y144700D01*
X127165Y139862D02*
Y143865D01*
X124055Y147638D02*
X124200Y147493D01*
Y144200D02*
Y147493D01*
Y144200D02*
X125591Y142809D01*
Y139862D02*
Y142809D01*
X196999Y146499D02*
X196500Y146999D01*
X195500D01*
X195000Y146499D01*
Y145999D01*
X195500Y145500D01*
X196500D01*
X196999Y145000D01*
Y144500D01*
X196500Y144000D01*
X195500D01*
X195000Y144500D01*
X197999Y144000D02*
Y145999D01*
X199499D01*
X199998Y145500D01*
Y144000D01*
X201498D02*
X202498D01*
X202997Y144500D01*
Y145500D01*
X202498Y145999D01*
X201498D01*
X200998Y145500D01*
Y144500D01*
X201498Y144000D01*
X203997Y145999D02*
Y144500D01*
X204497Y144000D01*
X204997Y144500D01*
X205497Y144000D01*
X205996Y144500D01*
Y145999D01*
X207496Y144000D02*
Y146499D01*
Y145500D01*
X206996D01*
X207996D01*
X207496D01*
Y146499D01*
X207996Y146999D01*
X209495Y144000D02*
X210495D01*
X209995D01*
Y146999D01*
X209495D01*
X212494Y145999D02*
X213494D01*
X213994Y145500D01*
Y144000D01*
X212494D01*
X211995Y144500D01*
X212494Y145000D01*
X213994D01*
X214994Y144000D02*
Y146999D01*
Y145000D02*
X216493Y145999D01*
X214994Y145000D02*
X216493Y144000D01*
X219492D02*
X218492D01*
X217993Y144500D01*
Y145500D01*
X218492Y145999D01*
X219492D01*
X219992Y145500D01*
Y145000D01*
X217993D01*
X220992Y145999D02*
X221991Y144000D01*
X222991Y145999D01*
X223991Y144000D02*
X224990D01*
X224490D01*
Y146999D01*
X223991Y146499D01*
X226490Y144000D02*
Y144500D01*
X226990D01*
Y144000D01*
X226490D01*
X228989Y146499D02*
X229489Y146999D01*
X230488D01*
X230988Y146499D01*
Y144500D01*
X230488Y144000D01*
X229489D01*
X228989Y144500D01*
Y146499D01*
D90*
X108957Y7089D02*
Y20081D01*
Y7089D02*
X146949D01*
Y20081D01*
D91*
X83900Y164700D02*
D03*
X82300Y157000D02*
D03*
D92*
X146949Y20081D02*
D03*
X108957Y7089D02*
D03*
X146949D02*
D03*
X108957Y20081D02*
D03*
D93*
X119100Y18200D02*
D03*
X102900Y93800D02*
D03*
X117200Y95300D02*
D03*
X221000Y151000D02*
D03*
X227000Y138000D02*
D03*
X211000Y151000D02*
D03*
X186000Y61000D02*
D03*
X192000Y58000D02*
D03*
X184000Y56000D02*
D03*
X192000Y49000D02*
D03*
X186000Y47000D02*
D03*
X191000Y42000D02*
D03*
X190000Y66000D02*
D03*
X180300Y63600D02*
D03*
X190000Y204000D02*
D03*
X186000Y188000D02*
D03*
X191000Y191000D02*
D03*
X182000Y192000D02*
D03*
X192000Y199000D02*
D03*
X184000Y200000D02*
D03*
X196000Y204000D02*
D03*
X186000Y206000D02*
D03*
X191000Y212000D02*
D03*
X118000Y176000D02*
D03*
Y182000D02*
D03*
X131000Y176000D02*
D03*
X133000Y182000D02*
D03*
X129000D02*
D03*
Y157000D02*
D03*
X119000Y163000D02*
D03*
X113000Y166000D02*
D03*
X118000Y169000D02*
D03*
X115000Y160000D02*
D03*
Y154000D02*
D03*
X119000Y152000D02*
D03*
X29000Y193000D02*
D03*
X36000Y192000D02*
D03*
X45000Y186000D02*
D03*
X51000Y184000D02*
D03*
X59000Y178000D02*
D03*
X55000Y174000D02*
D03*
X46000Y151000D02*
D03*
X55000Y145000D02*
D03*
X45000Y143000D02*
D03*
X38000Y149000D02*
D03*
X35000Y139000D02*
D03*
X30000Y148000D02*
D03*
X24000Y141000D02*
D03*
X64000Y148000D02*
D03*
X58000Y151000D02*
D03*
X52000Y153000D02*
D03*
X85000Y152000D02*
D03*
X97700Y139900D02*
D03*
X97000Y128500D02*
D03*
X67000Y111000D02*
D03*
X65000Y45000D02*
D03*
X75000Y75000D02*
D03*
X65000Y63000D02*
D03*
X73000Y65000D02*
D03*
X65000Y54000D02*
D03*
X31000Y120000D02*
D03*
X36000Y113000D02*
D03*
X30000Y109000D02*
D03*
X25000Y115000D02*
D03*
X45000D02*
D03*
X44000Y110000D02*
D03*
X42000Y105000D02*
D03*
X34000Y82000D02*
D03*
X29000Y79000D02*
D03*
X73000Y105000D02*
D03*
X60000Y93000D02*
D03*
X62000Y96000D02*
D03*
X54000Y93000D02*
D03*
X57000Y86000D02*
D03*
X68000Y93000D02*
D03*
X67000Y78000D02*
D03*
X74000Y82000D02*
D03*
X81000Y85000D02*
D03*
X168000Y31000D02*
D03*
X139000Y16000D02*
D03*
X86000Y36000D02*
D03*
X99000Y34000D02*
D03*
X93000Y32000D02*
D03*
X87000Y31000D02*
D03*
X90000Y40000D02*
D03*
X126000Y67500D02*
D03*
X139000Y75100D02*
D03*
X138900Y82500D02*
D03*
X160000Y95000D02*
D03*
X205300Y152200D02*
D03*
X217000Y140000D02*
D03*
X236000Y190000D02*
D03*
X203000Y181000D02*
D03*
X199000Y183000D02*
D03*
X188000D02*
D03*
X179300Y184700D02*
D03*
X156000Y154000D02*
D03*
X151000Y155000D02*
D03*
Y147000D02*
D03*
X174000Y160000D02*
D03*
X212400Y188900D02*
D03*
X227700Y192000D02*
D03*
X220400Y181600D02*
D03*
X230900Y73100D02*
D03*
X216700Y81400D02*
D03*
X221100Y74400D02*
D03*
X141900Y107500D02*
D03*
X184700Y100600D02*
D03*
X178200Y87600D02*
D03*
X179900Y90800D02*
D03*
X161500Y117900D02*
D03*
X147800Y118000D02*
D03*
X140000Y50500D02*
D03*
X140100Y53700D02*
D03*
X121800Y72100D02*
D03*
X141900Y111000D02*
D03*
X115100Y114000D02*
D03*
X79600Y172700D02*
D03*
X75800Y174600D02*
D03*
X155000Y117900D02*
D03*
X197100Y96700D02*
D03*
X228400Y77700D02*
D03*
X222500Y61300D02*
D03*
X211800Y69600D02*
D03*
X65500Y168700D02*
D03*
X57600Y167600D02*
D03*
X78900Y168500D02*
D03*
X89000Y162800D02*
D03*
X88600Y158000D02*
D03*
X81000Y177900D02*
D03*
X131600Y30400D02*
D03*
X107900Y30300D02*
D03*
X133200Y107000D02*
D03*
X111700Y125400D02*
D03*
X97500Y116600D02*
D03*
X114900Y104800D02*
D03*
X103600Y110500D02*
D03*
X116100Y147900D02*
D03*
X108500Y140300D02*
D03*
X104300Y115500D02*
D03*
X101700Y136200D02*
D03*
X95100Y159200D02*
D03*
X108300Y160900D02*
D03*
X141100Y152700D02*
D03*
X131800Y169400D02*
D03*
X136400Y160700D02*
D03*
X146600Y43200D02*
D03*
X142500D02*
D03*
X168700Y40100D02*
D03*
Y35600D02*
D03*
X162900Y32800D02*
D03*
X151700Y38300D02*
D03*
X96300Y38100D02*
D03*
X111400Y42900D02*
D03*
Y38400D02*
D03*
X22800Y74000D02*
D03*
X20800Y67500D02*
D03*
X29800Y65700D02*
D03*
X32900Y63200D02*
D03*
X61900Y108700D02*
D03*
X66500Y100700D02*
D03*
X21600Y189900D02*
D03*
X33300Y175500D02*
D03*
X34900Y180300D02*
D03*
X37400Y184600D02*
D03*
X128300Y222400D02*
D03*
X133700Y222500D02*
D03*
X123000Y222400D02*
D03*
X133300Y88700D02*
D03*
X161000Y102800D02*
D03*
X157000D02*
D03*
X96700Y110300D02*
D03*
X94350Y112550D02*
D03*
X93000Y129400D02*
D03*
X135500Y91018D02*
D03*
X142600Y88500D02*
D03*
X149200Y91300D02*
D03*
X154200Y95400D02*
D03*
X131000Y71600D02*
D03*
X133700Y74700D02*
D03*
X128600Y86300D02*
D03*
X89000Y121100D02*
D03*
X89400Y125600D02*
D03*
X89300Y134000D02*
D03*
X163500Y128200D02*
D03*
X197439Y153688D02*
D03*
X199600Y151100D02*
D03*
X191300Y80500D02*
D03*
X205600Y69500D02*
D03*
X119400Y39500D02*
D03*
Y57000D02*
D03*
D94*
X129138Y50438D02*
D03*
Y55162D02*
D03*
X133862D02*
D03*
Y50438D02*
D03*
X130315Y120866D02*
D03*
X135039D02*
D03*
X130315Y125591D02*
D03*
X135039D02*
D03*
X125591Y120866D02*
D03*
Y125591D02*
D03*
X120866Y120866D02*
D03*
Y125591D02*
D03*
X135039Y130315D02*
D03*
X130315D02*
D03*
Y135039D02*
D03*
X135039D02*
D03*
X125591Y130315D02*
D03*
X120866D02*
D03*
Y135039D02*
D03*
X125591D02*
D03*
D95*
X127953Y244094D02*
D03*
M02*
